<?xml version="1.0" encoding="UTF-8"?>
<svg id="Calque_2" xmlns="http://www.w3.org/2000/svg" viewBox="0 0 447.45 437.94">
  <g id="Calque_1-2" data-name="Calque_1">
    <g>
      <path d="M30.78,308.45c.5,1.74,1.02,3.48,1.51,5.23.43,1.54.82,3.09,1.23,4.63-.25.17-.51.33-.76.5-.64-.51-1.59-.89-1.88-1.56-3.96-9.31-7.99-18.6-11.66-28.02-1.4-3.59-1.85-7.53-2.89-11.27-1.12-4.01-2.41-7.98-3.67-11.95-1.29-4.06-2.65-8.09-3.93-12.15-.34-1.07-.5-2.2-.73-3.3-2.42-11.5-3.08-23.18-2.89-34.86.16-9.74.85-19.48,1.7-29.19.33-3.78,1.61-7.5,2.66-11.19,1.78-6.28,3.71-12.52,5.57-18.78-.3-.12-.6-.24-.9-.36-1.25,2.83-2.87,5.55-3.69,8.5-1.68,6.05-3.3,12.16-4.27,18.35-1.2,7.72-1.67,15.55-2.52,23.32-.41,3.8-1.06,7.57-1.42,11.38-.21,2.19-.04,4.41-.04,6.62-.37.08-.74.16-1.11.24-.37-.82-1.06-1.64-1.06-2.46,0-6.7-.11-13.42.27-20.11.5-8.88,1.2-17.76,2.28-26.58.34-2.81,2.18-5.43,2.72-8.13-.03-1.58-.43-3.25-.03-4.71,3.63-13.08,9.08-25.41,15.08-37.59,6.19-12.57,14.18-23.85,23-34.56,9.97-12.1,22.05-22.13,33.5-32.77,2.8-2.6,5.03-5.81,7.86-8.37,3.73-3.36,7.66-6.54,11.73-9.47,7.94-5.71,15.89-11.44,24.13-16.7,5.7-3.63,12.06-5.99,19.04-5.77,7,.23,13.9.01,20.76-1.9,5.69-1.59,11.46-.64,17.02,1.16,1.21.39,2.27,1.24,3.4,1.89,1.26.72,2.47,1.52,3.77,2.13,1.87.88,3.14,2.03,3.25,4.3.04.74.73,1.52,1.28,2.14.45.5,1.35.65,1.68,1.19,1.52,2.43,2.56,5.23,5.65,6.26.32.11.65.97.55,1.38-.84,3.43,1.64,5.15,3.67,6.93,5.14,4.51,7.79,13.31,5.41,19.77-1.04,2.83-2.38,5.77-4.34,7.99-11.48,13.04-24.72,23.69-41.63,28.93-7.08,2.2-14.25,4.13-21.36,6.25-1.78.53-2.93.04-4.07-1.39-2.32-2.92-6.13-3.43-9.7-2.24-2.3.77-4.93.45-7.37.88-1.77.31-3.47,1.05-5.2,1.59-2.31.72-4.58,1.75-6.95,2.06-1.89.25-3.03.92-3.88,2.54-.84,1.59-1.57,3.41-4.04,2.94-.42-.08-1.06.54-1.49.94-4.18,3.88-8.02,7.99-10.58,13.21-1.57,3.2-3.49,6.23-5.34,9.47-.84-.32-1.53-.59-2.61-1.01-1.13,2.17-2.42,4.32-3.41,6.61-.97,2.24-2.45,4.3-2.16,7.03.13,1.22-.01,2.88-1.98,3.2-.29.05-.44.95-.65,1.46.61.04,1.43.33,1.78.05.79-.64,1.39-1.54,1.98-2.39,3.08-4.45,6-9.02,9.24-13.35,1.57-2.1,3.71-3.78,5.59-5.64.26.22.53.44.79.67-.67.89-1.33,1.8-2.01,2.67-2.52,3.22-5.12,6.39-7.56,9.67-.81,1.09-1.98,2.28-.67,3.97.25.32-.8,1.56-1.11,2.42-.35.96-.53,1.97-.79,2.96.84-.5,1.91-.82,2.47-1.54,3.25-4.22,6.23-8.66,9.61-12.77,2.59-3.16,5.44-6.16,8.51-8.86,3.1-2.72,7.25-2.98,11.04-3.99l.44.58c-.57.78-1.03,1.68-1.72,2.33-2.48,2.33-5.28,4.37-7.51,6.91-4.41,5.03-8.82,10.13-12.64,15.6-2.13,3.05-2.86,7.03-4.58,10.41-3.27,6.43-6.8,12.73-10.2,19.1-.28.53-.38,1.16-.29,1.88,1.92-1.62,1.72-5.05,5.65-5.63-4.3,10.41-6.23,20.97-6.91,31.83,1.91-6.55,3.82-13.1,5.73-19.65.47.05.94.09,1.4.14.02,1.29.48,2.78,0,3.83-4.21,9.08-4.18,18.74-4.33,28.42-.05,3.53-.9,7.06-.83,10.57.12,5.69,1.15,11.25,3.72,16.47,1.44,2.91,1.27,2.99,4.64,1.89,1.04,2.61,2.14,5.23,3.13,7.9,1.39,3.76,2.59,7.6,4.06,11.32,2.04,5.16,4.3,10.23,6.38,15.38.52,1.28.59,2.74,1.12,4.02.46,1.12,1.07,2.33,1.97,3.07,1.49,1.23,2.89,2.22,1.37,3.68,1.85,3.43,3.53,6.54,5.21,9.65.15-.19.29-.37.44-.56.93.61,2.2,1,2.73,1.86,3.85,6.21,8.69,11.51,14.2,16.28,3.61,3.13,7.07,6.45,10.42,9.86,1.1,1.12,1.63,2.79,2.46,4.28,3.2-1.99,4.24,1.99,7.38,2.53-.64-1.23-.91-2.26-1.57-2.89-2.31-2.25-4.76-4.37-7.15-6.54-.52-.47-1.29-.85-1.5-1.43-.43-1.22-.55-2.54-.81-3.82,1.09.26,2.35.24,3.24.81,9.66,6.12,19.21,12.43,28.9,18.5,15.51,9.72,32.49,15.15,50.62,17.36,9.77,1.19,19.41,3.72,29.36,2.94,9.22-.72,18.41-1.72,27.63-2.47,10.46-.85,20.81-2.25,30.99-4.88,15.59-4.02,30.38-9.87,43.73-19.04,4.1-2.82,8.28-5.53,12.45-8.25.81-.53,1.75-.87,2.63-1.3.16.23.33.45.49.68-.88.85-1.72,1.76-2.66,2.55-12.24,10.34-26.33,17.63-41.24,22.97-11.86,4.24-24.26,7.04-36.53,10.08-8.41,2.08-17,3.47-25.5,5.57,2.74-.19,5.52-.11,8.2-.61,17.6-3.26,35.2-6.45,52.15-12.49,19.17-6.83,37.2-15.69,52.62-29.17,11.49-10.05,21.86-21.12,29.13-34.93-.48.14-.95.27-2.15.61,2.2-3.56,3.98-6.61,5.93-9.55,11.9-18.01,17.53-38.07,19.54-59.33.27-2.86.81-5.7,1.06-8.57,2.11-24.43-1.49-48.17-8.64-71.49-6.67-21.77-17.54-41.25-32.11-58.67-3.35-4.01-7.24-7.58-10.84-11.38-.79-.84-1.44-1.81-2.31-2.94,13.32,5.01,18.74,17.6,27.11,27.18.3-.25.6-.5.9-.74-.49-.73-.96-1.47-1.46-2.2-18.21-26.05-43.11-43.5-71.57-56.82-10.15-4.75-20.72-7.14-31.38-9.72-.96-.23-1.9-.59-2.84-.89.05-.32.1-.65.15-.97,4.68.51,9.4.79,14.02,1.59,4.89.85,9.78,1.94,14.52,3.42,4.61,1.44,9.02,3.51,13.52,5.31.09-.24.19-.49.28-.73-6.83-2.6-13.54-5.55-20.51-7.71-10-3.09-20.13-5.81-30.3-8.27-4.63-1.12-9.5-1.23-14.26-1.81-2.16-.26-4.32-.63-6.48-.78-2.12-.14-4.25,0-6.37-.11-1.24-.06-2.71,0-3.64-.62-1.41-.96-2.51-.97-3.79-.06-.85.6-1.94,1.05-2.51,1.86-2.13,2.99-4.99,2.38-7.84,1.76-1.88-.41-2.56-1.95-1.15-3.24,1.38-1.27,3.3-2.09,5.12-2.7,1.17-.39,2.6-.11,3.9,0,3.09.26,5.7-.7,7.77-2.98,1.6-1.76,3.51-2.39,5.86-2.28,9.75.43,19.51.78,29.26,1.16-1.03-.39-2.15-.82-3.27-1.25l.12-.84c1.89.15,3.8.14,5.65.51,1.75.35,3.7.17,4.98,2.19.47.74,2.64,1.11,3.64.7,4.51-1.86,8.25.68,12.25,1.71.64,2.59,3.04,2.35,4.87,2.97,2.23.76,4.51,1.37,6.77,2.04,1.97.59,3.95,1.16,5.95,1.65-25.75-13.78-54.09-17.33-82.54-20.42l.04-.88c.86-.2,1.7-.47,2.57-.59,11.71-1.7,23.16.61,34.59,2.47,13.43,2.18,25.95,7.51,38.81,11.68,12.79,4.15,24.54,10.45,35.56,17.93,7.22,4.9,13.6,11.04,20.36,16.63.33.28.66.55,1.41.42-4.03-4.05-8.05-8.1-12.08-12.15.04-.19.07-.37.11-.56.86.21,1.95.15,2.55.67,5.3,4.55,10.97,8.78,15.66,13.91,8.63,9.43,16.67,19.4,24.94,29.16.21.25.2.67.29,1.02.25-.23.5-.45.75-.68-2.64-3.63-5.28-7.26-8.03-11.03,4.62,1.62,25.49,34.74,26.61,42.75-1.04-1.88-2.07-3.77-3.11-5.65-.12.04-.23.09-.35.13.57,1.32,1.03,2.69,1.72,3.95,6.94,12.63,11.92,25.95,14.44,40.18,1.51,8.51,3.57,16.92,4.79,25.47,1.95,13.68,2.49,27.43,1.13,41.25-1.37,13.84-3.34,27.57-6.93,41-4.65,17.42-10.82,34.33-19.24,50.31-9.36,17.77-20.55,34.32-34.56,48.8-4.18,4.32-8.94,8.07-13.35,12.17-1.84,1.71-3.43,3.69-5.24,5.44-.68.66-1.63,1.07-2.5,1.52-.91.47-1.86.83-2.79,1.27-1.96.93-3.88,1.96-5.89,2.75-.44.17-1.22-.46-1.82-.75-.2-.1-.38-.45-.53-.43-1.63.21-3.42.11-4.83.79-5.95,2.87-11.8,5.93-17.63,9.02-1.28.68-2.33,1.77-3.8,2.92-.14,0-.99-.32-1.62-.07-3.79,1.52-7.55,3.11-11.27,4.79-1.82.82-3.5,1.96-5.32,2.8-.52.24-1.29-.09-1.95-.16l-.18-.74c3.03-1.96,5.93-4.17,9.11-5.83,6.58-3.43,13.49-6.25,19.91-9.93,5.71-3.27,10.94-7.36,16.24-11.37-4.65,2.48-9.36,4.86-13.94,7.47-25.18,14.34-52.39,22.39-80.97,26.25-11.79,1.59-23.63,2.56-35.52,1.99-5.99-.29-11.97-1.13-17.91-2.02-5.58-.83-11.11-2.05-16.66-3.1l-.41.61c1.8,1.23,3.44,2.98,5.43,3.61,6.88,2.18,13.89,3.98,20.85,5.94.38.11.73.33,1.15,1.16-1,.18-1.99.44-2.99.52-6.67.48-12.95-1.69-19.22-3.31-7.33-1.9-14.5-4.52-21.59-7.22-4.14-1.57-7.94-4-11.98-5.87-8.78-4.08-17.35-8.85-26.5-11.82-8.73-2.83-15.15-8.78-22.44-13.57-3.97-2.61-7.42-6.06-10.95-9.3-.81-.74-.98-2.18-1.45-3.3.29-.18.59-.36.88-.54,4.39,3.25,8.78,6.5,13.17,9.75-24.81-21.94-45.3-47.48-63.68-74.84l-.62.41c2.68,5.04,5.36,10.08,8.04,15.12.7,1.31,1.27,2.73,2.2,3.86.67.82,1.82,1.26,2.77,1.86.77.48,1.79.76,2.29,1.43,2.56,3.43,4.98,6.96,7.45,10.46.15.21.35.44.39.68.19,1.3.34,2.61.5,3.91-1.06-.7-2.36-1.2-3.15-2.13-3.7-4.4-7.47-8.75-10.81-13.42-6.38-8.93-10.83-18.91-15.21-28.92-.77-1.76-1.52-3.53-2.32-5.28-.08-.18-.38-.27-1.24-.85.38,1.95.46,3.38.94,4.67,2.2,5.89,4.57,11.72,6.73,17.62.42,1.16.19,2.57.25,3.86-1.11-.68-2.25-1.31-3.31-2.06-.8-.57-1.49-1.3-2.59-2.28.11,2.11.19,3.65.27,5.19-.33.12-.66.23-.99.35-1.62-2.93-3.24-5.86-4.95-8.97-2.02,1.61-1.55,3.3-.89,4.91,1.25,3.07,2.74,6.05,3.88,9.16.59,1.61.64,3.42.48,5.3-3.7-3.01-4.82-7.5-7.15-11.22-.76-3-1.59-5.98-3.85-8.3,1.12,2.84,1.36,6.08,3.88,8.28ZM83.88,290.73c1.83-1.61,2.87-1.71,3.89.17,4.14,7.64,8.38,15.22,12.7,22.76.67,1.18,2.52,1.84,2.87,3.02,1.03,3.53,4.14,5.23,6.53,7.12,13.13,10.4,26.58,20.4,39.96,30.48,1.38,1.04,3,1.81,4.6,2.46.62.25,1.53-.21,2.3-.34-.36-.61-.58-1.42-1.11-1.79-1.92-1.36-3.94-2.57-5.98-3.88-1.21,2.17-2.32.59-3.26-.07-16.54-11.56-31.89-24.37-43.77-40.93-6.77-9.44-13.51-18.85-16.67-30.27-.07-.26-.48-.43-.99-.85-.64,1.34-1.2,2.51-2.07,4.33-.86-1.45-1.41-2.36-1.94-3.29-1.52-2.64-2.98-5.32-4.59-7.9-.25-.4-1.14-.39-1.74-.57-.08.4-.37.91-.22,1.17,1.03,1.78,1.8,3.97,3.34,5.14,2.29,1.75,2.68,4.14,3.51,6.48.75,2.11,1.63,4.18,2.64,6.76ZM283.91,391.56c-10.14,2.47-20.31,4.28-30.77,4.18-1.58-.02-3.16.86-4.74,1.31-1.41.4-2.8.98-4.24,1.15-3.43.39-6.88.58-10.33.84,17.22.98,33.87-1.94,50.09-7.47ZM335.6,370.89c-13.1,5.74-26.19,11.48-39.29,17.22.15.33.31.66.46.99,14.12-3.54,26.34-11.18,38.83-18.21ZM399.23,293.96c11.57-17.15,19.39-35.87,23.39-56.18-5.73,19.58-12.54,38.71-23.39,56.18ZM223.44,371.46c-.03.31-.06.62-.08.93l5.11.39c.02-.25.04-.49.06-.74-1.7-.19-3.4-.39-5.1-.58Z"/>
      <path d="M73.05,349.04c1.53.33,2.55.26,3.09.73,1.23,1.09,2.16,2.51,3.31,3.69,4.91,5.06,9.89,10.07,14.79,15.14,2.05,2.12,3.94,4.4,5.95,6.57,1.12,1.21,2.19,2.55,3.53,3.45,7.9,5.28,15.89,10.44,23.83,15.65.69.45,1.33.99,2,1.48-.07.34-.15.68-.22,1.02-1.08-.13-2.37.07-3.21-.45-7.81-4.88-15.62-9.77-23.26-14.9-2.76-1.85-5.09-4.36-7.6-6.58-.52-.46-.94-1.03-1.43-1.51-3.6-3.52-7.23-7.01-10.8-10.56-4.06-4.04-8.15-8.07-12.05-12.26-1.54-1.65-2.64-3.72-3.93-5.6.36-.29.71-.58,1.07-.87,1.78,1.8,3.55,3.6,4.93,5Z"/>
      <path d="M241.22,424.58c-1.1,1.63-1.72,3.24-2.89,4.07-1.43,1.01-3.31,1.85-5.02,1.91-4.75.16-9.59.94-14.21-1.07-1.09-.48-2.37-.61-3.57-.73-5.07-.52-9.51-2.71-13.83-5.19-.54-.31-.79-1.13-1.17-1.71.69-.16,1.4-.51,2.08-.45,3.88.34,7.76.74,11.63,1.2,2.65.31,5.28.95,7.94,1.09,5.48.29,10.98.33,16.47.51.98.03,1.95.28,2.57.38Z"/>
      <path d="M233.43,420.77c-1.36.29-2.77.96-4.09.81-8.11-.96-16.21-2.1-24.3-3.19-.69-.09-1.43-.17-2.01-.49-.44-.25-.68-.88-1-1.34.45-.31,1.02-.99,1.34-.89,2.69.82,5.7-1.66,8.27.88.37.37,1.64-.32,2.48-.26,4.94.36,9.89.65,14.79,1.27,1.6.2,3.09,1.31,4.63,2.01-.04.4-.07.81-.11,1.21Z"/>
      <path d="M159.16,410.03c1.2.33,2.41.62,3.59,1.01,5.96,1.94,11.86,4.12,17.9,5.79,3.41.95,7.05,1.05,10.57,1.63,1.18.19,2.38.53,3.46,1.04.49.23,1.06,1.13.96,1.58-.12.49-1,1.18-1.49,1.14-3.05-.27-6.33.37-8.91-2.1-.48-.46-1.39-.62-2.12-.66-8.6-.46-16.16-4.05-23.63-7.87-.26-.13-.4-.51-.59-.77.09-.26.19-.52.28-.78Z"/>
      <path d="M80.52,375.12c-2.68-2.6-5.35-5.2-8.18-7.94-.07.08-.54.61-1.14,1.3-2.94-1.55-5.14-3.9-5.62-7.08-.23-1.52,1.29-3.31,2.11-4.92.05-.1,1.02.05,1.36.34,2.89,2.44,5.65,5.05,6.5,8.93.54,2.45,1.78,4.27,3.79,5.73.93.67,1.57,1.73,2.34,2.62l-1.17,1.03Z"/>
      <path d="M92.13,356.12c-5.69-1.92-17.67-16.14-17.21-21.02,6.25,6.09,11.53,12.34,16.81,18.57.42.5.26,1.48.4,2.45Z"/>
      <path d="M340.79,22.98c-7.05-3.65-14.11-7.3-21.16-10.94,2.62-1.02,4.85-.19,7.04.94,3.53,1.82,7.12,3.54,10.57,5.49,1.6.91,2.95,2.27,4.41,3.43-.29.36-.57.72-.86,1.08Z"/>
      <path d="M64.06,337.53c-3.37-1.48-8.33-9.04-8.25-12.35,2.68.89,8.6,9.57,8.25,12.35Z"/>
      <path d="M199.1,408.25c3.03-1.57,13.83.39,15.69,2.73-5.45-.07-10.29-.74-15.69-2.73Z"/>
      <path d="M224.27,432.93c-.92.43-1.44.9-1.92.87-2.43-.17-4.88-.34-7.26-.79-.69-.13-1.19-1.21-1.78-1.85.73-.3,1.51-.95,2.19-.85,2.84.41,5.98-.11,8.77,2.63Z"/>
      <path d="M359.84,34.04c-4.18-2.58-8.36-5.16-12.55-7.74,2.82-.85,10.78,4.14,12.55,7.74Z"/>
      <path d="M222.62,436.02c2.35-1.33,5.25-1.01,7.23.79-1.48,1.78-4.83,1.41-7.23-.79Z"/>
      <path d="M4.08,251.64c.25-2.91.45-5.23.65-7.55.17-.13.34-.27.52-.4.54.88,1.39,1.71,1.57,2.66.37,1.96-.21,3.73-2.73,5.29Z"/>
      <path d="M306.53,356.09c-3.7,1.09-7.4,2.19-11.11,3.28-.1-.32-.2-.64-.29-.96,3.7-1.1,7.4-2.2,11.1-3.3.1.32.2.65.3.97Z"/>
      <path d="M193.31,413.82c-1.04.35-2.07.88-3.14.99-.55.05-1.18-.65-1.78-1.01.48-.6.96-1.69,1.44-1.69,1.18,0,2.36.49,3.55.78-.02.31-.05.63-.07.94Z"/>
      <path d="M156.45,409.94c-2.29-.13-4.25-.85-5.53-2.81.15-.29.3-.58.46-.86,1.84.95,3.67,1.9,5.51,2.86-.15.27-.29.54-.44.82Z"/>
      <path d="M254.19,23.63c2.05.23,4.1.46,6.15.69-.03.38-.06.76-.09,1.14-2.05-.18-4.11-.36-6.16-.54.04-.43.07-.86.1-1.29Z"/>
      <path d="M353.36,382.56c-.85,1.74-1.41,2.87-2.07,4.22-1.78-2.45-1.47-3.16,2.07-4.22Z"/>
      <path d="M344.03,389.08c-1.61.9-3.22,1.81-4.83,2.71-.18-.3-.35-.6-.53-.89,1.59-.97,3.18-1.94,4.77-2.91.2.37.39.73.59,1.1Z"/>
    </g>
  </g>
</svg>