<?xml version="1.0" encoding="UTF-8"?>
<svg id="Calque_2" data-name="Calque 2" xmlns="http://www.w3.org/2000/svg" viewBox="0 0 304.89 405.5">
  <defs>
    <style>
      .cls-1 {
        fill: #020202;
      }

      .cls-2 {
        fill: #030303;
      }

      .cls-3 {
        fill: #0d0d0d;
      }

      .cls-4 {
        fill: #ba012d;
      }

      .cls-5 {
        fill: #464646;
      }

      .cls-6 {
        fill: #050303;
      }

      .cls-7 {
        fill: #0b0304;
      }

      .cls-8 {
        fill: #ba012e;
      }
    </style>
  </defs>
  <g id="Calque_1-2" data-name="Calque 1">
    <g>
      <path class="cls-4" d="M215.86,115.88c-.08.21-.58,2.41-.5,2.51-.09,1.02.52,1.49,1.51,1.51.28.31.6.44,1,.5,2.15.31,3.25-.62,4.52-2.01.31-.33.6-.37,1-1h2.01c.1,2.48.03,5.05,0,7.53-1.05.92-1.7.17-2.51,0-.52-.11-.73-.67-2.01-.5-2.72.36-2.35,5.36-6.02,1.51-.03-.33.05-.69,0-1v-1.51c0-.5.02-1.01,0-1.51-.26-6.33-7.01-5-7.93-2.13-.23.72-.06,1.42-.11,2.13-.13,1.94.23,4.16,0,6.03l-.5.5c-.07.3.09.78,0,1-.63,1.51-1.62,2.26-2.51,3.52-.34.11-.66.39-1,.5-6.6,2.24-2.14,5.85,1,9.04.21,1.47.56,2.24.5,4.02-.02.63.11,1.48,0,2.01-.73,3.43-5.64,4.88-5.02,8.76.32,2.03,2.81,2.31,4.31,1.32.88-.58.83-1.87,1.71-2.04-.47,2.07,1.76,4.02,2.01,5.28.32,1.63.21,7.71,0,9.54-.86,7.75-4.03,13.48-6.05,20.56-.76,2.65-.72,2.09-.97,4.8-.12,1.34-.3,2.69-.5,4.02-.1.66-.35,1.35-.5,2.01-1.68,2.54-3.72,4.56-6.02,6.53-.16-.02-.34-.01-.5,0s-.37.35-.5.5c-.17.16-.33.34-.5.5-2.09,1.96-2.96,3.16-3.51,6.03-.03.16.04.35,0,.5-.23.07-.47.27-.5.5-.04.32.01.68,0,1-1.91,1.71-2.72,5.09-3.51,7.53-.07.21-.36.51-.5,1-1.18.41-1.78,1.89-2.51,2.51-.45.39-2,1.63-2.51,2.01-2.15,1.6-5.55,2.87-7.53,5.02-.04-.03-.78-.04-1,0-.46.08-.47.49-.5.5-.28.08-.7-.07-1,0-.36.08-.47.49-.5.5-.41.11-1.13-.13-1.51,0-1.23.41-2.62.71-3.53,1.74-1.19,1.34-.8,3.6-2.45,4.07-3.93,1.12-5.65-3.26-4.6-6.5l-1.61-.82c-1.86-1.05,1.97-2.62,2.67-3.25,1.01-.91,3.7-3.62,4-4.78.07-.25-.01-.68,0-1,.04-.85.13-1.73-.23-2.54-.39-.59-1.18-.45-1.78-.47-1.16-.05-1.14.11-2.01.5-.31.14-.71-.1-1,.5-.06.12.05.34,0,.5l-2.01,2.01c-.49-.02-1.02-.04-1.51,0-2.56.21-4.31,1.85-5.52,4.02-.28.5-.35.98-.5,1.51-.07.24-.56.47-.56,1.25s.52,1.07.56,1.26c.35,1.69.7,3.32,1,5.02.07.37.5.47.5.5.04.32-.03.68,0,1,.06.65,0,1.35,0,2.01,0,1.02.18,2.64,0,3.52-.02.1-.4.29-.5.5-.13.29-.35.75-.5,1-.89,1.53-2.05,3.46-3.01,5.02-.77,1.25-2.17,1.83-3.01,4.02-.97-.1-1.1.6-1.54,1.2-1.01,1.38-5.08,6.93-4.99,8.07.04.45.46.64.5.78.46,1.35.72,1.49,1.51,2.51.36.48.68,1,1,1.51-.12.75.17,1.85,0,2.51-.95,1.28-3.12,1.5-4.01,2.27-1.24,1.07-.94,2.9-3.88,3.65-3.36.85-2.35-.9-3.66-1.65-.53-.31-1.34-.15-1.5-.25-.18-.12-2.87-2.84-3.01-3.01-.16-.2-.61-.98-1-1.51-17.39-23.13-22.62-56.25-15.52-84.08,12.43-48.72,60.87-81.52,110.9-74.11ZM182.22,207.28c-.41-2.6,2.93-4.46.52-6.8-3.08-3-4.49,3.58-5.17,5.41-.25.68-1,1.29-1.17,1.88-.5,1.7,1.53,2.44,1.69,3.33.13.74-1.22,3.83.93,4.18.66.11,7.14-5.68,5.5-7.54l-2.3-.47Z"/>
      <path class="cls-8" d="M162.15,307.71c-.21-.13-1.77-2.77-3.06-3.72-1.54-1.14-7.97-3.87-7.98-5.55,0-.55.75-1.94,1-2.78.13-.45.37-.54.5-1.51,1.89-.48,2.75-2.5,5.02-2.01-.22,1.92-.13,6.12,2.29,6.57,1.06.2,1.43-.48,1.73-.54.67-.13,1.33-.36,2.01-.5s1.41-.01,2.01-.5c.25.27.29.06,1,1-1.34,1.25-4.34,1.8-4.01,4.01,2.08.38,3.67-.96,5.52-1.5,1.48-.44,2.99-.75,4.52-1,.29-.05.47-.5.5-.5,4.15-.53,9.29.42,13.55,0,.86-.08.95-.49,1-.5.17-.05.38.06.5,0,.27-.14.84.13,1.25-.49.41-3.07,2.24-5.21,3.27-8.05.17-.46-.16-1.49,0-2.01.03-.11.38-.29.5-.5.49-.85.77-.98,1.51-1.51.8-.57,2.05-1.23,3.01-1.51.3.09,1.77.46,2.01.5.07,1.33-.11,2.7,0,4.02.09,1.15.29,3.53.5,4.52.34,1.6,1.48,2.79,3.21,2.48l2.81-4.49c3.33-1.94,2.99-5.19,2.01-8.54-.1-.35-.75-.81-.87-1.36-.49-2.13.04-3.53,1.38-5.16,1.39-.38,2.55-.58,4.02-.5,3.99.22,2.25,3.95,5.67,2.92s.08-6.67-1.15-8.45c.09-.36.06-1.59,0-2.01l.5-1c.35-.28,1.15-1.12,1.51-1.51,2.13-.45,4.49-2.2,6,.31-2.03,3.41-4.9,3.65-4.99,8.23-.01.5-.02,1.01,0,1.51l.5.5c.03.5-.04,1.01,0,1.51s-.06,1.03,0,1.51c.1.75.49,1.37.5,1.51.13,1.09-.41,3.68.47,4.3,4.85,1.41,3.85-1.92,5.54-4.06,1.14-1.45,5.43-3.28,6.17-4.87s.23-4.09.37-5.91c.08-1.13-.16-2.46,0-3.52.05-.36.78-2.53.97-2.8.96-1.38,5.21-2.51,5.81-3.73.51-1.04.51-2.63-.76-3.02-.15-.04-.34.04-.5,0-.72-1.1-1.7-1.99-2.51-3.01-.33-.41-.96-.93-1-1-.22-.33-.96-1.43-1-1.51-.34-.7-.32-1.77-.5-2.51l-.5-.5c-.11-.77.05-1.7,0-2.51-.11-1.97-.15-4.58,0-6.53.04-.49-.07-1.05,0-1.51l.5-.5c.19-.66.28-1.37.5-2.01.53-1.52,1.42-3.09,2.01-5.02.15-.5.37-1.03.5-1.51,1.35-.71,1.7-2.62,2.01-4.02.09-.42-.04-1.02,0-1.51.11-1.25.03-1.04,0-2.01s.1-2.07,0-3.01-.49-1.43-.5-1.51c-.07-.47.09-1.06,0-1.51-.24-1.24-.63-2.32-1-3.52-.09-.27.09-.75,0-1l-.5-.5c-.16-.4-.35-.68-.5-1-.95-2.06-2.32-3.86-3.01-6.03-.08-.26.06-.7,0-1l-.5-.5c-.19-.99.08-2.41,0-3.52v-2.01c0-.33-.03-.68,0-1,1.16-1.16,3.08-2.58,3.51-4.02,1.79-.21,3.01-.65,5.02-.5.49.04,3.02,1.6,3.03-.25.02-2.35-2.11-5.09-3.03-7.28.05-.49-.07-1.03,0-1.51.71-4.91,1.19-4.79,3.51-8.54.22-.36.34-.76.5-1,1.3-2.05,1.84-2.27,2.51-5.02.14-.56-.14-1.45,0-2.01l.5-.5c.13-.57-.11-1.4,0-2.01l.5-.5c.05-.32-.05-.69,0-1,.14-.84.48-1.32.5-2.51.01-.62.09-1.44,0-2.01l-.5-.5c-.16-.76-.3-1.86-.5-2.51l-.5-.5c-.05-.15.06-.36,0-.5-.64-1.66-1.37-4.97-3.51-5.52-.02-.33.07-.74,0-1l-.5-.5c-.11-.19-.39-.32-.5-.5-1.16-1.81-2.27-3.81-3.51-5.52-.14-.19-.37-.32-.5-.5-3.04-4.14-6.51-7.91-9.54-12.05.09-.63-.08-1.37,0-2.01.01-.08.43-.45.5-1.51.05-.79.05-1.72,0-2.51-.06-.87-.26-1.69-.5-2.51,30.74,10.36,54.27,30.03,65.77,61.01,26.84,72.31-33.54,146.27-109.55,134.7-5.04-.77-20.57-4.39-24.49-6.88Z"/>
      <path d="M204.31,146.51c3.91-.15.27-10.41,1.51-11.55,6.73,1.31,2.41-10.35,3.47-11.74l1.55-.31c.14,2.01-.68,6.74,1.51,7.79.87.41,6.61.45,7.81.28s1.78-.95,2.5-1.02c1.12-.11,2.87.9,4.25.49-.85,5.35,1.65,3.54,3.52,4.76.88.58.91,4.69,4.48,3.8l.47,3.3,3.09.93c.67,3.6,1.55,3.07,4.25,4.79l.47,6.05c6.54,1.23,2.41,5.23,3.82,9.74-5.56.31-3.15,6.77-4.27,8.35-.59.83-3.07.27-3.46,1.59l-.56,14.47c-.49.76-5.02-.46-6.8.72-.56.37-1.44,4.29-1.47,5.11-.04,1.24.5,2.25.49,3.42-.02,3.24-.55,9.22,0,12.06.1.52.25.99.69,1.32l3.25,1.27c-.55,3.09,1.19,14.2-.16,16.28-.71,1.09-2.93-.23-3.59,3.33-.97,5.23.12,11.2.25,16.43.09,3.58-2.4,7.16,3.35,7.8,1.47,5.1-1.09,3.75-2.67,5.18-2.01,1.83-.74,8.71-1.18,11.37-3.08.28-2.76.64-3.83,2.97-.33.71.3,1.37-1.14,1.1v-5.02s3.03-.23,3.03-.23c1.35-1.65,1.08-8.94-.54-10.04-1.44-.98-10.61-.37-12.02.49-1.91,1.16-.99,9.9-1.99,10.57-2.45,1.38-10.65-.7-11.48,2.08-.3,1-.29,9.83,0,10.84.14.47,1.21,1.63,1.63,1.89,1.13.7,2.62-.05,2.28,1.48-2.67-.16-4.25,1.68-7.03.5-.11-1.32.07-2.69,0-4.02.46.07,1,.03,1.46-.04,2.56-4.74-6.88-4.74-8.99-3.73s-1.42,5.36-1.51,7.28c-5.8-.53-3.45,3.74-4.23,7.57-5.32,2.22-10.71-.32-16.03.93-1.19-.35-.91-3.13-1.81-3.73-1.33-.89-5.83-.68-7.54-.74l-.3-3.07c-1.4-1-7.17-1.37-8.73-.69-1.65.73-1.26,2.84-2.02,3.51-.6.52-2.22.37-2.76,1.26-.77,1.27-1.02,6.59-.54,8.06.81,2.46,3.94,1.59,5.78,2.26,1.36.49,2.19,2.39,3.03,2.98.79.55,2.92.56,2.51,1.51-.37.86-4.3.54-5.54.99-.94.34-1.34,1.18-2.01,1.5-2.03.97-4-.17-3.48,3.79.45-.08,1.18.12,1.5,0-.02.67.03,1.34,0,2.01-3.62-.3-5.16,3.37-7.41,5.13l.61,5.95c-3.48,2.64-3.24,5-8.04,3.02-1.51-.63-2.61-2.24-4.69-2.09.65-4.34-4.6-5.67-7.07-8.49,0-.16.02-.34,0-.5,1.99-.62.23-2.7.72-3.51,1.23-1.07,6.2-5.32,6.58-6.5.44-1.38-.18-6.54-1.02-7.56-1.25-1.51-3.32.58-4.63.89-3.79.91-2.86-1.36-5.55-1.78-1.83-.29-2.86.46-4.37.42-2.42-.07-4.12-2.34-6.63.4-5.83-3.7-8.81,3.76-12.72,6.87-2.32.29-10.01-.29-11.34.7-.46.35-.51,1.43-1.05,1.56-1.21.29-2.62-.59-3.68-.31-1.28.33-3.05,3.38-4.51,4.05-2.07.95-4.5-.95-5.77,2.27-.96.25-1.03-1.55-2.52-1.99-1.87-.55-6.62-.83-8.24.25-2,1.34-.41,4.88-.83,6.67-.32,1.4-3.16,2.93-2.21,5.61-1.46.27-1.51-1.76-2.51-2.25-.33-.16-4.04-1.7-4.27-1.75-.65-.14-4.97-.56-5.4-.44-1.4.41-3.74,4.13-5.09,3.98-.97-2.63-2.24-1.58-3.94-2.16-1.15-.39-2.08-2.3-3.88-1.89,0-1.4.29-1.56.5-2.51,1.24.17,2.16-.82,3.29-.98,1.5-.21,3.4.34,4.73-.28.54-.25.9-1.13,1.54-1.47.85-.44,2.37-.39,3-1.02.94-.94-.28-3.74,3.01-5.02,1.25-.49,2.41-.13,3.64-.38,2.43-.5,1.46-1.94,2.13-3.39,1.07-2.3,14.86-15.66,17.54-18.11,1.52-1.39,3.65-2.32,4.34-4.44h1.1c1.09,1.82,9.76,2.31,10.77,1.32l2.12-3.39c.17-.01.34.01.5,0,1.37,2.81,8.5,2.36,10.71,1.4.71-.31.7-1.11.96-1.27.39-.24,5.67-2.11,6.76-2.53,3.29-1.29,1.11-.38,3.43-.12,1.56.17,6.26.55,7.23-.28.53-.45.71-2.18,2.03-.87.1,1.64,1.21,3.2,2.86,3.56,1.93.43,11.33.42,13.47.13,3.01-.41,1.7-2.51,2.73-3.3.81-.62,3.36-.2,3.93-2.1.71-2.38.65-9.01-2.41-9.95v-.74c2.21-.04,1.58-2.68,2.25-3.54.47-.61,1.59-.42,2.23-.78,2.89-1.61.73-6.83,2.13-7.67.45-.27,1.63.07,2.43-.32,2.33-1.13,1.15-7.93,1.52-8.28s2.98.78,2.5-2.25c-.15-.96-1.17-1.28-1.01-2.28,3.86-.25,3.12,4.4,4.87,4.92.84.25,7.61.28,8.36.03,1.39-.47,1.07-3.59,1.39-3.89.57-.54,3.86-.07,3.75-3.63l5.75-.67c1.83-.59,1.67-2.62,2.69-3.34.91-.64,2.04-.27,2.8-.71,1.04-.59.75-2.65,1.24-3.28.64-.82,2.22-.16,3.05-.97.73-.71.49-2.35.99-3.03.41-.56,1.49-.54,2.01-1,2.48-2.15,1.58-4.3,1.82-7.22l3-1.11,1-7.19,7.26-.52c.04-2.72,1-5.61.67-8.28-.17-1.37-.37-2.12-1.96-1.8.2-1.32.38-2.68.5-4.02,2.05.02,5.22-3.55,5.49-5.3.15-.97-.19-3.87.08-4.19.13-.15,1.68-.17,2.44-.82,2.05-1.73.52-4.62.52-6.51,0-5.25,1.04-11.87,1-17.59-.02-2.48.43-7.21-1.47-9.07-.97-.95-2.36-.59-2.51-.75-.23-.24.25-3.6-1.54-3.98.11-.53-.02-1.38,0-2.01ZM221.64,178.15c-1.23.28-.87,2.81.49,2.51,1.23-.28.87-2.81-.49-2.51ZM203.57,233.4c-1.31.35-.71,2.46.99,2,1.31-.35.71-2.46-.99-2ZM211.34,253.48c3.42.45,3.48-2.94,0-2.51v2.51ZM149.09,286.62c-.8-.8-2.3.7-1.5,1.5s2.3-.7,1.5-1.5Z"/>
      <path class="cls-1" d="M293.67,22.47c1.5,4.18-2.99,7.46-3.48,10.32-.31,1.82.08,5.51.72,7.26.47,1.3,5.08,8.39,6.1,8.99,1.93,1.13,4.81-1.19,6.98-1.44.93-.11,1.09.56.72.98-.08.09-1.32.42-2.03,1.24-1.16,1.33-1.96,3.24-3.23,4.3-1.42,1.19-3.71,1.69-5.25,2.79s-2.57,3.58-4.77,3.25c-1.25-.18-1.7-1.92-3.29-1.52l1.5,4.01c-3.74,2.09-7.23-1.92-10.57-.78-.74.25-6.11,5.55-7.01,6.55-7.98,8.86-6.19,10.81-7.49,21.63-.43,3.58-2.93.79-4.77.2-4.57-1.47-8.08-1.53-12.49-4.08-3.09-1.79-8.55-7.4-11.66-7.92-2.48-.42-7.5.19-9.88,1.12-2.87,1.12-5.29,6.91-7.66,7.89-.84.35-.68-.33-.86-.64-1.17-1.98-2.3-5.67-5.18-5.87-6.91-.47-8.85,8.86-2.77,10.31,2,.48,5.16-.24,6.56.46s.62,2.51,1.49,3.53c1.4,1.62,7.34,1.42,6.97,3.9-.13.83-3.49,4.27-4.22,4.39-1.45.23-4.61-.76-5.9-1.52-.55-.33-.03-1.55-1.37-.77-3.4,1.98-2.56,6.01-3.21,8.84-1.37,5.94-10.29,2.03-9.3-4.27.52-3.31,5.44-3.6,1.75-8.84-1.33-1.89-6.46-4.73-7.04-6.01-.53-1.17-.38-6.2-.14-7.66.85-5.06,6.31-6.11,9.36-9.21,6.21-6.32-1.46-6.27-.46-11.49.46-2.39,5.44-2.7,7.41-1.89.85.35,1.23,1.4,2.39,1.62,2.62.5,8.16.14,9.31-2.71.57-1.42.75-5.57.46-7.06-.37-1.88-2.74-1.76-.5-5.03.93-1.36,2.57-1.41,2.9-3.1.54-2.76.52-6.72-1.36-8.88,2.7-2.18,1.02-6.1,1.45-9.13.19-1.34,1.1-1.93,1.07-3.46-.11-5.27-8.51-8.65-5.49-14.53.55-1.06,2.36-2.04,2.72-2.85.47-1.06-.78-5.54,2.9-5.37,2.84.13,10.89,10.66,13.39,13.18,6.77,6.81,20.42,18.41,29.87,19.84,2.51.38,11.34,1.3,13.32.77,6.52-1.74,5.57-10.48,12.03-11.32Z"/>
      <path class="cls-6" d="M31.63,327.3c2.55,3.43,3.38,10.83,9.78,9.54,1.02-.2,1.32-1.05,2.15-1.37,3.59-1.36,6.37.64,5.62,4.61-.31,1.61-2.26,2.51-1.98,4.29,1.27.58,3.23.16,4.26,1.01.34.28,4.15,6.55,4.38,7.17,1.43,3.92-2.03,5.82-2.69,9.58-4.1,2.98-3.09,6.59-4.05,10.51-.46,1.88-2.06,3.89-2.36,6.18-.48,3.69,1.32,15.87-2.05,17.54-3.16,1.56-3.11-2.5-4.77-1.76-1.09.48-.98,4.75-1.81,6.22-.9,1.58-7.79,6.09-9.44,4.26-.08-.57-.18-1.42-.05-1.95.61-2.36,4.59-3.36,2.45-6.73-1.24-1.95-4.18-1.89-2.96-6.33-7.88,3.84,4.01,7.28-.5,12.55-3.39-.58-12.39.76-10.44-5.67.58-1.9,3.31-1.63,2.39-6.12-.31-1.51-1.75-1.57-2.62-2.9-5.88-9.02,9.25-13.86,6.57-21.66-.28-.81-1.46-.63-1.45-1.07,0-.82,1.66-2.32,1.92-3.63.63-3.17-1.55-4.42-3.1-6.71-.71-1.04-.86-3.04-2.32-3.71-3.67-1.7-3.07,4.63-3,6.78,4.89-1,8.08.78,4.22,5.48-1.86,2.26-5.2,3.72-5.24-.2,0-.92,1.24-2.49-.24-2.27-2.5.38-4.97,6.15-8.78,5.03,2.09-4.98-4.44-6.52-2.51-11.55h2.51c.19-.88-1.42-.63-2.01-1-.22-.14-3.15-3.8-3.24-4.04-1.5-4.11,3.37-5.57,6.24-3.49l.71-4.07,4.84-.68c1.38-4.84,2.78-3.31,6.67-3.75.84-2.52,2.66-6.24,5.08-7.6,1.81-1.02,6.82.09,6.8-3.49.56.41.59.45,1,1ZM10.04,359.44c1.15-1.77-2.98-5.97-4.01-5.02l1.26,4.01,2.75,1.01Z"/>
      <path class="cls-2" d="M62.75,354.92c.27-2.33,1.21-4.63,1.85-6.93.61-2.16,1.96-2.22-.34-4.88-2.72-3.14-5.05-.94-8.54-1.25v-1.5c1.84.18,3.18-.15,4.78-.99.87-.46,6.38-5.29,6.99-6.06,1.18-1.49,2.26-6.49,3.18-8.37.31-.64,2.06-2.63,2.63-2.89,3.91-1.79,4.42,3.21,6.25,3.24.95.02,2.09-1.14,3.14-1.39,1.18-.28,2.46.06,3.69-.33,2.17-.7,1.6-3.18,2.22-4.81.66-1.73,6.73-6.03,8.56-5.97.86.03,1.45.78,2.1.87.86.12,1.7-.44,2.77-.32,3,.33,5.31,3.88,8.85,2.99.72,1.14.29,2.9.82,3.96.43.88,1.78.55,2.14,2.34,1.15,5.65-2.1,5.28-5.17,8.17-.71.67-2.44,2.76-2.96,3.57-1.05,1.63-2.98,7.77-4.11,7.96-4.4-1.94-6-7.61-11.88-5.88-.86.25-1.98,1.94-2.91,2.61s-3.24,1.73-3.7,2.33c-.93,1.23-.55,3.41-1.16,4.87s-4.33,5.12-4.57,6.01c-.33,1.23.84,2.77.37,4.1-2.7.46-4.47,1.01-6.73,2.57-1.91,0-3.14-4.85-5.11-5.48-.73-.26-2.35,1.03-2.66,1.45h-.5Z"/>
      <path d="M215.86,115.88c.15-.35.99-.87,1.23-1.52.96-2.61-.33-5.58,4.35-4.29.99.27.93,1.19,1.56,1.44,3,1.21,3.89-1.31,5.09-1.09,2.07.38,1.23,6.19,1.33,7.97.07,1.39-.45,3.01,1.51,3.01.05.79.05,1.72,0,2.51l-1.5.76.05.7.95.04c-.08.64.09,1.37,0,2.01-.12.82-.78,1.37-.84,1.83-.41,3.03,1.29,2.39,2.11,3.16,1.8,1.69,3.84,4.7,5.9,6.41.67.56,1.54.6,2.37.65.13.18.37.32.5.5-.33,1.81.38,3.4,1.43,4.81.81,1.08.7.8,2.08.71.12.18.4.32.5.5.11.2.47.39.5.5.07.27-.02.68,0,1,0,.06-.59.32-.42,1.09.28,1.24,2.11,4.98,3.93,4.43.06.14-.05.35,0,.5.12.33.49.47.5.5.2.66.35,1.75.5,2.51.05.24.49.44.5.5.09.57.01,1.39,0,2.01-1.61-.03-1.63,1.2-1.5,2.51h1c-.05.32.05.69,0,1.01,0,.04-.43.11-.5.5-.11.61.13,1.43,0,2.01,0,.03-.4.09-.5.5-.14.56.14,1.45,0,2.01-3.1-.12-2.55,2.7-2.51,5.02-.16.25-.28.64-.5,1-4.18.16-4.17,3.51-4.46,6.85-.08.97-.57,1.95.94,1.68-.07.47.05,1.02,0,1.51-.02.19-.56.74-.56,1.72,0,1.93,1.39,3.94.56,5.81-2.01-.14-3.23.3-5.02.5-.06,0-.46-.64-1.13-.45-.84.24-2.68,2.46-2.83,3.35-.12.74.44,1.05.44,1.11-.03.33,0,.67,0,1,0,.72-.09.85,0,2.01s-.19,2.53,0,3.52c.08.4.49.47.5.5.06.31-.08.75,0,1-1.58-.22-.94.56-.78,1.53.42,2.52.69,4.52,3.79,4.5.15.32.34.61.5,1,.1.23.46.4.5.5.09.26-.09.73,0,1-1.94.57-.49,3.61,1,3.52.09.45-.07,1.04,0,1.51l-.96.04-.04.71,1.5.76c.1.95-.03,2.03,0,3.01l-1.51.26,1.51,1.75c-.04.48.09,1.09,0,1.51-2.45.15-1.64,2.65-2.01,4.02-.13.48-.35,1-.5,1.51-2.5-.34-4.3,3.78-2.01,5.02-.22.64-.32,1.35-.5,2.01,0,.03-.44.12-.5.5-.07.46.04,1.02,0,1.51-.85,1.61-.84,5.02,0,6.53.05.81-.11,1.74,0,2.51.05.39.49.47.5.5.18.75.16,1.81.5,2.51h-1s0,.75,0,.75l2,.76c.05.07.68.6,1,1l.22,2.54c.54.77,1.65.33,2.29.47.17.04.36-.04.5,0,1.29,2.17-1.3,1.85-2.46,2.82-.68.56-.91,1.46-1.52,1.99-1.44,1.27-4.78,1.68-2.05,4.73-.16,1.06.08,2.39,0,3.52-1,1.04-.1,2.46-.97,3.8-.73,1.14-5,4.28-6.34,5.71-1.13,1.22-.97,3.41-3.74,3.04l-1.51-2.01c-.02-.14-.4-.76-.5-1.51l1.01-.25v-1.25s-1.01,0-1.01,0c-.04-.5.03-1.01,0-1.51-.03-.36-.5-.47-.5-.5-.02-.5-.01-1.01,0-1.51l2.92-1.09c-.11-4.4,5.08-4.35,3.63-9.65-2.99-2.1-3.03.35-3.85.63-.95.32-2.34-.25-3.24.31-.49.3-.36,1.15-.47,1.27-.36.39-1.15,1.23-1.51,1.51-.12.09-.71-.09-1,0-.24.54.49.92.5,1,.06.42.09,1.65,0,2.01-.06.25-.96.61-.89,1.66.09,1.31,3.49,5.99-.12,4.51l-.81-1.59c-.84.07-3.05-.82-2.7.94-1.46-.08-2.63.12-4.02.5l-.29-1.03c-3.66-.4-4.12,7.86-.22,7.56.98,3.34,1.32,6.59-2.01,8.54-.79.46-1.84-.48-2.31,2.04l-3.71-.03c-.21-.99-.41-3.37-.5-4.52,2.78,1.18,4.36-.66,7.03-.5.34-1.52-1.15-.78-2.28-1.48-.42-.26-1.49-1.42-1.63-1.89-.3-1.02-.3-9.85,0-10.84.83-2.78,9.02-.7,11.48-2.08,1-.67.08-9.41,1.99-10.57,1.41-.86,10.58-1.47,12.02-.49,1.62,1.1,1.89,8.39.54,10.04l-3.04.23v5.02c1.44.27.81-.39,1.14-1.1,1.07-2.33.75-2.69,3.83-2.97.44-2.66-.84-9.55,1.18-11.37,1.58-1.44,4.14-.09,2.67-5.18-5.75-.65-3.26-4.22-3.35-7.8-.13-5.23-1.21-11.2-.25-16.43.66-3.55,2.88-2.24,3.59-3.33,1.35-2.08-.39-13.19.16-16.28l-3.25-1.27c-.44-.33-.59-.8-.69-1.32-.54-2.84,0-8.81,0-12.06,0-1.17-.53-2.18-.49-3.42.03-.82.9-4.73,1.47-5.11,1.79-1.19,6.31.03,6.8-.72l.56-14.47c.39-1.32,2.87-.76,3.46-1.59,1.12-1.58-1.29-8.04,4.27-8.35-1.41-4.51,2.73-8.51-3.82-9.74l-.47-6.05c-2.7-1.72-3.58-1.19-4.25-4.79l-3.09-.93-.47-3.3c-3.57.9-3.6-3.22-4.48-3.8-1.87-1.22-4.37.59-3.52-4.76-1.38.41-3.13-.61-4.25-.49-.72.07-1.37.86-2.5,1.02-1.19.17-6.94.14-7.81-.28-2.19-1.04-1.37-5.78-1.51-7.79l-1.55.31c-1.07,1.39,3.25,13.05-3.47,11.74-1.24,1.14,2.41,11.4-1.51,11.55.06-1.77-.3-2.55-.5-4.02-.09-.66.09-1.45-.03-2.21-.32-2.07-1.67-4.21-.98-6.83.34-.12.66-.39,1-.5.43-.14,1.38.14,2.13-.11,1.76-.58,2.98-3.28.38-3.41.09-.22-.07-.7,0-1,0-.03.46-.12.5-.5.23-1.87-.13-4.09,0-6.03l4.28-2.52,3.76,2.52c.02.5,0,1.01,0,1.51,0,.55-.21.19,0,1.51.05.32-.03.68,0,1l-1.01.32c-.74,2.44,2.89,3.1,4.84,2.28,1.15-.49,1.55-2.88,2.2-4.11,1.28-.17,1.48.39,2.01.5-.35,2.16,1.78,2.79,2.8.97.37-.65-.29-.92-.29-.97.03-2.49.1-5.05,0-7.53-.01-.33.03-.67,0-1l-1.74-.02c-.55.11-.15.85-.27,1.03-.4.63-.7.67-1,1-1.7.06-3.38.74-4.52,2.01-.4-.06-.73-.2-1-.5-.08-.08.05-.67-.24-1.02-.48-.57-1.23-.43-1.27-.49-.08-.1.42-2.31.5-2.51Z"/>
      <path d="M199.8,200.75c1.59-.33,1.79.43,1.96,1.8.33,2.67-.63,5.56-.67,8.28l-7.26.52-1,7.19-3,1.11c-.24,2.92.66,5.07-1.82,7.22-.53.46-1.6.44-2.01,1-.5.68-.26,2.32-.99,3.03-.83.81-2.41.15-3.05.97-.49.63-.2,2.69-1.24,3.28-.77.44-1.89.07-2.8.71-1.02.72-.86,2.74-2.69,3.34l-5.75.67c.11,3.57-3.18,3.1-3.75,3.63-.32.3,0,3.42-1.39,3.89-.75.25-7.52.22-8.36-.03-1.74-.52-1.01-5.16-4.87-4.92-.16,1,.85,1.32,1.01,2.28.49,3.03-2.12,1.9-2.5,2.25s.81,7.15-1.52,8.28c-.81.39-1.98.04-2.43.32-1.4.84.77,6.06-2.13,7.67-.64.36-1.77.17-2.23.78-.66.86-.03,3.49-2.24,3.54v.74c3.06.94,3.12,7.57,2.41,9.95-.56,1.9-3.12,1.48-3.93,2.1-1.03.78.29,2.89-2.73,3.3-2.14.29-11.54.3-13.47-.13-1.65-.37-2.77-1.92-2.86-3.56-1.32-1.31-1.5.42-2.03.87-.98.82-5.68.45-7.23.28-2.33-.26-.14-1.17-3.43.12-1.09.43-6.37,2.29-6.76,2.53-.26.16-.25.97-.96,1.27-2.21.95-9.34,1.41-10.71-1.4,5.58-.48,7.74-.62,12.91-2.9,1.33-.59,3.56-2.44,4.42-2.61,3-.58,6.9,1.14,9.43.39.36-.11,2.88-2.41,3.36-2.91l4.02,1c-.01,1.74-.11,3.34.51,5.02h.99c.02-.42.27-.69.51-1,2.76,1.26,8.55,1.89,10.77-.53.43-.46,3.16-4.99,3.29-5.5.17-.66-.12-1.76,0-2.51h1s0-.75,0-.75l-2-.76c-.78-1.02-1.05-1.16-1.51-2.51,1.69.36.68-1.26,1.23-2.02.41-.57,1.67-.42,2.05-.98s.14-1.71.5-2.51c.73-1.63,1.31-2.12,2.24-4.53.84-2.19,2.24-2.77,3.01-4.02l2.92-.6c.57-1.5.75-2.91.1-4.42.15-.26.37-.72.5-1l.5-.5c.18-.88,0-2.49,0-3.52.78-.21.75-1.85,0-2.01-.03-.33.04-.68,0-1l-.5-.5c-.3-1.7-.65-3.34-1-5.02h1c.08-1.04.13-2.18-1-2.51.15-.53.22-1,.5-1.51,1.89-.05,5.77-1.8,5.52-4.02.48-.04,1.02-.02,1.51,0,.12,0,.86.83,1.5.5.32-.76.29-1.83.51-2.51.05-.16-.06-.38,0-.5l1-.5c.87-.39.85-.55,2.01-.5-.2,1.53.29,2.89,2.01,3.01-.01.32.07.75,0,1-3.73.82-5.55,3.67-8.28,6.04-1.09,2.38.92,3.16,1.11,4.33.1.66-.6,1.45-.15,2.19.43.71,2.02.77,2.22,1.08.4.66-.37,2.48,1.1,3.21.82.41,5.94-.7,6.4-1.4.27-.41.07-1.29.37-1.87.65-1.25,3.51-1.44,2.76-4.04.37-.13,1.09.11,1.51,0l.5-.5c.31-.07.73.08,1,0l.5-.5c.23-.04.97-.03,1,0,.3.26-.27,2.07,2.7.43,1.71-.95,1.59-2.55,1.93-2.84.43-.37,4.83-.25,2.91-2.62.51-.38,2.06-1.62,2.51-2.01,3.1,1.81,2.11-1.15,2.51-2.51.15-.5.44-.8.5-1,2.72-1.24,3.42-4.95,3.51-7.53.01-.33-.04-.69,0-1,.23-.08.44-.26.5-.5.04-.16-.03-.34,0-.5,3.13-.5,3.3-3.35,3.51-6.03.17-.16.33-.34.5-.5s.36-.31.5-.5c.16-.01.35-.02.5,0,2.07.23,2.83,1.03,4.14-1.65.73-1.49,1.53-3.38,1.89-4.88.16-.66.4-1.35.5-2.01Z"/>
      <path d="M29.12,323.28c1.8-.4,2.73,1.5,3.88,1.89,1.7.58,2.97-.47,3.94,2.16,1.35.15,3.69-3.57,5.09-3.98.43-.12,4.74.3,5.4.44.23.05,3.95,1.59,4.27,1.75,1,.5,1.05,2.52,2.51,2.25-.95-2.67,1.88-4.21,2.21-5.61.42-1.79-1.17-5.34.83-6.67,1.62-1.09,6.37-.81,8.24-.25,1.5.44,1.57,2.24,2.52,1.99,1.27-3.22,3.7-1.31,5.77-2.27,1.46-.67,3.23-3.71,4.51-4.05,1.06-.28,2.48.6,3.68.31.55-.13.59-1.22,1.05-1.56,1.32-.99,9.02-.41,11.34-.7,3.91-3.11,6.9-10.57,12.72-6.87,2.51-2.74,4.2-.47,6.63-.4,1.51.04,2.54-.71,4.37-.42,2.69.43,1.75,2.69,5.55,1.78,1.31-.31,3.38-2.41,4.63-.89.85,1.02,1.47,6.18,1.02,7.56-.38,1.19-5.36,5.44-6.58,6.5-.49.81,1.27,2.89-.72,3.51-.17-1.72-1.67-3.07-.9-5.67.52-1.73,5.35-3.37,5.89-6.66.17-1.04-.02-2.19.03-3.24-7.35,1.83-14.42-1.36-21.83-.99l-10.28,8.31c-2.34.74-2.53-.64-3.81-.78-.55-.06-4.72.67-5.05.94-.71.59-.62,2.23-1.52,2.53-.32.11-3.4-.36-4.2-.47-.1-.01-.37-.5-.78-.5l-.75.22-.48,1.79c-2.85,2.06-4.37,1.6-6.88,2.91-1.85.97-2.95,3.61-5.66,2.36-1.87-.86-3.08-5.38-6.31-2.28-1.31,1.26-.09,2.38-.32,4.15-.19,1.52-1.53,2.97-1.81,4.26-.35,1.63.14,3.49-.62,5.16-5.17-1.88-7.11-7.09-13.68-5.4-2.06.53-5.45,5.68-7.66,3.4-1.11-1.14-.51-3.24-3.75-2.52-.41-.56-.44-.59-1-1-.17-.13-.93.05-1.27-.47-.42-.66-.24-1.76-.24-2.54Z"/>
      <path d="M148.59,314.74c-.33.12-1.06-.08-1.5,0-.52-3.96,1.45-2.82,3.48-3.79.67-.32,1.07-1.16,2.01-1.5,1.24-.45,5.17-.13,5.54-.99.41-.95-1.72-.95-2.51-1.51-.84-.59-1.66-2.49-3.03-2.98-1.84-.66-4.97.2-5.78-2.26-.49-1.47-.23-6.79.54-8.06.54-.89,2.16-.74,2.76-1.26.76-.66.37-2.78,2.02-3.51,1.55-.69,7.33-.32,8.73.69l.3,3.07c1.71.06,6.21-.15,7.54.74.9.6.62,3.38,1.81,3.73,5.33-1.25,10.71,1.29,16.03-.93.78-3.83-1.57-8.1,4.23-7.57.09-1.92-.6-6.28,1.51-7.28s11.56-1.01,8.99,3.73c-.46.07-1.01.11-1.46.04-.24-.04-1.71-.41-2.01-.5-.23-.07-.25-1.45-1.87-.64-.97.48-1.28,1.06-1.14,2.15-.74.53-1.01.66-1.51,1.51l-.5.5c-.16.52.17,1.55,0,2.01-3.52.78-4.26,5.45-4.52,8.54-.12.06-.33-.05-.5,0l-1,.5c-4.26.42-9.4-.53-13.55,0l-.5.5c-1.53.25-3.04.57-4.52,1,.3-1.99-1.41-2.38-1.51-2.51-.71-.94-.75-.73-1-1-.08-.09.1-.68-.04-.96l-1.97,1.46c-.67.14-1.33.37-2.01.5-2.66-1.9-3.24-3.85-2.51-7.03l-6.19.46c-1.45.91-.32,2.42-.33,2.55-.13.96-.37,1.06-.5,1.51-3.23.43-3.34,2.7-2.96,5.47,2.35-.1,10.28,4.11,10.91,5.91.32.9,0,2.2.08,3.18-2.47,1.48-5.23.98-7.82,1.97-1.07.41-3.04,2.29-3.73,2.55Z"/>
      <path d="M75.8,282.1c-.18.96.8,1.54,1,2.01.12.28-.16,1.04.02,1.47,4.1.88,6.21-1.68,10.02-1.97l-2.12,3.39c-1.01,1-9.68.5-10.77-1.31h-1.1c-.69,2.12-2.82,3.05-4.34,4.43-2.68,2.45-16.47,15.8-17.54,18.11-.67,1.45.29,2.89-2.13,3.39-1.23.25-2.38-.11-3.64.38-3.29,1.28-2.07,4.08-3.01,5.02-.63.63-2.15.58-3,1.02-.64.33-1.01,1.22-1.54,1.47-1.34.63-3.24.07-4.73.28-1.13.16-2.05,1.15-3.29.98.23-1.05-.12-2.4,1-3.27,2.41-.34,5.31-.31,7.5-1.54,2.03-1.14,3.08-4.82,4.78-5.77,1.44-.81,2.62-.14,4.07-.95,1.9-1.06,8.82-10.15,10.94-12.41,1.9-2.02,4.59-4.01,6.62-6.19,2.75-2.96,4-5.73,8.24-7.83,1.02-.5,1.87-.87,3.04-.72Z"/>
      <path d="M148.59,316.75c-.16,4.27-4.63,4.22-5.42,6.88-.63,2.11.38,5.79-.66,7.39-.19.29-4.96,3.66-5.32,3.72-2.4.37-3.9-1.49-5.54-2.3-6.02-2.98-3.19-2.14-6.93-6.12-1.63-1.73-3.39-.49-3.26-4.3.03-.73.51-1.45.52-1.75,2.47,2.83,7.73,4.15,7.07,8.49,2.08-.15,3.17,1.46,4.69,2.09,4.8,1.99,4.57-.38,8.04-3.02l-.61-5.95c2.25-1.76,3.79-5.43,7.41-5.13Z"/>
      <path class="cls-3" d="M119.91,306.28c1.24,1.95-1.39,4.59-1.82,5.82-.6,1.72-.2,5.88-3.99,4.28-6.6-2.78,3.65-13.49,5.81-10.1Z"/>
      <path class="cls-6" d="M152.11,295.66c-.24.83-1,2.23-1,2.78,0,1.68,6.44,4.41,7.98,5.55,1.28.95,2.85,3.59,3.06,3.72-.07,1.22-1.05,1.94-2.01,2.51-.09-.98.23-2.28-.08-3.18-.63-1.8-8.55-6.01-10.91-5.91-.38-2.77-.27-5.05,2.96-5.47Z"/>
      <path class="cls-6" d="M120.48,274.07c.4.53.84,1.31,1,1.51,0,.33,0,.67,0,1l-4.02-1c.64-.65.18-2.16,3.01-1.51Z"/>
      <path class="cls-6" d="M230.42,118.89c.24.83.45,1.65.5,2.51-1.95,0-1.43-1.62-1.51-3.01.34.13.66.39,1,.5Z"/>
      <path class="cls-5" d="M62.75,354.92h.5c-.12.17.14,1.33-.47,1.78-.68.51-1.87.47-1.53-.51.45-.77.43-1.53,1.5-1.27Z"/>
      <path class="cls-6" d="M80.32,313.74c-.53.68-1.33,1.02-2.01,1.51l.48-1.79.75-.22c.41,0,.68.49.78.5Z"/>
      <path class="cls-6" d="M76.81,284.11c-.21-.47-1.18-1.05-1-2.01,1.19.14,1.69.48,1.5,1.75l-.49.26Z"/>
      <path d="M204.31,148.52c1.79.38,1.31,3.75,1.54,3.98.15.16,1.54-.2,2.51.75,1.9,1.86,1.45,6.58,1.47,9.07.05,5.72-.99,12.34-1,17.59,0,1.89,1.53,4.78-.52,6.51-.77.65-2.31.67-2.44.82-.28.32.07,3.21-.08,4.19-.27,1.75-3.45,5.32-5.49,5.3.25-2.71.22-2.14.97-4.8,2.02-7.08,5.2-12.81,6.05-20.56.2-1.83.31-7.91,0-9.54-.25-1.26-2.47-3.21-2.01-5.28-.88.17-.83,1.46-1.71,2.04-1.5.99-3.99.71-4.31-1.32-.62-3.88,4.29-5.33,5.02-8.76Z"/>
      <path class="cls-7" d="M182.22,207.28l2.3.47c1.64,1.86-4.84,7.65-5.5,7.54-2.15-.36-.8-3.44-.93-4.18-.16-.89-2.19-1.63-1.69-3.33.17-.59.92-1.2,1.17-1.88.68-1.84,2.09-8.41,5.17-5.41,2.41,2.34-.93,4.2-.52,6.8Z"/>
      <path class="cls-6" d="M161.14,227.87c-.31,1.16-2.99,3.88-4,4.78-.69.63-4.53,2.2-2.67,3.25l1.61.82c-1.05,3.24.67,7.62,4.6,6.5,1.65-.47,1.26-2.73,2.45-4.07.91-1.03,2.3-1.33,3.53-1.74.75,2.6-2.11,2.79-2.76,4.04-.3.57-.1,1.45-.37,1.87-.46.71-5.58,1.81-6.4,1.4-1.47-.73-.69-2.55-1.1-3.21-.19-.31-1.79-.38-2.22-1.08-.45-.74.25-1.53.15-2.19-.18-1.17-2.2-1.94-1.11-4.33,2.72-2.37,4.55-5.21,8.28-6.04Z"/>
      <path class="cls-6" d="M123.49,280.6c.47-.6.91-1.22,1-2.01.15.1.96-.06,1.5.25,1.32.76.3,2.51,3.66,1.65,2.94-.75,2.64-2.58,3.88-3.65.89-.77,3.06-.99,4.01-2.27-.13.51-2.86,5.03-3.29,5.5-2.22,2.42-8.01,1.78-10.77.53Z"/>
      <path class="cls-6" d="M202.81,133.46c-.7,2.62.66,4.76.98,6.83.12.75-.07,1.55.03,2.21-3.15-3.19-7.61-6.8-1-9.04Z"/>
      <path class="cls-6" d="M214.86,121.91l-3.76-2.52-4.28,2.52c.05-.72-.12-1.41.11-2.13.92-2.87,7.67-4.2,7.93,2.13Z"/>
      <path class="cls-6" d="M141.06,258c-.93,2.42-1.51,2.9-2.24,4.53-.36.81-.12,1.96-.5,2.51s-1.64.41-2.05.98c-.55.76.45,2.38-1.23,2.02-.05-.14-.47-.33-.5-.78-.09-1.14,3.98-6.69,4.99-8.07.44-.6.57-1.3,1.54-1.2Z"/>
      <path class="cls-6" d="M178.71,231.38c1.93,2.37-2.47,2.25-2.91,2.62-.34.29-.22,1.89-1.93,2.84-2.96,1.64-2.39-.17-2.7-.43,1.98-2.15,5.38-3.42,7.53-5.02Z"/>
      <path class="cls-6" d="M220.88,124.42c-.65,1.23-1.05,3.62-2.2,4.11-1.95.83-5.58.16-4.84-2.28l1.01-.32c3.67,3.85,3.3-1.15,6.02-1.51Z"/>
      <path class="cls-6" d="M191.76,210.29c-.21,2.68-.39,5.53-3.51,6.03.56-2.87,1.43-4.06,3.51-6.03Z"/>
      <path class="cls-6" d="M184.23,225.86c.79-2.45,1.61-5.82,3.51-7.53-.1,2.58-.79,6.29-3.51,7.53Z"/>
      <path class="cls-6" d="M152.61,227.36c.25,2.22-3.63,3.97-5.52,4.02,1.22-2.16,2.96-3.8,5.52-4.02Z"/>
      <path class="cls-6" d="M147.09,248.96c.65,1.52.47,2.92-.1,4.42l-2.92.6c.96-1.56,2.12-3.49,3.01-5.02Z"/>
      <path class="cls-6" d="M199.29,202.76c-.35,1.5-1.15,3.4-1.89,4.88-1.31,2.67-2.07,1.88-4.14,1.65,2.31-1.96,4.34-3.99,6.02-6.53Z"/>
      <path class="cls-6" d="M203.81,132.95c.89-1.26,1.88-2.01,2.51-3.52,2.6.13,1.38,2.83-.38,3.41-.76.25-1.7-.04-2.13.11Z"/>
      <path class="cls-6" d="M161.14,226.86c-1.71-.13-2.21-1.48-2.01-3.01.61.03,1.39-.11,1.78.47.36.81.26,1.69.23,2.54Z"/>
      <path class="cls-6" d="M181.22,229.37c.73-.63,1.33-2.11,2.51-2.51-.4,1.36.59,4.32-2.51,2.51Z"/>
      <path class="cls-6" d="M222.39,118.39c-1.27,1.39-2.37,2.32-4.52,2.01,1.14-1.27,2.82-1.95,4.52-2.01Z"/>
      <path class="cls-6" d="M225.4,124.92c0,.05.65.31.29.97-1.02,1.83-3.15,1.19-2.8-.97.81.17,1.46.92,2.51,0Z"/>
      <path class="cls-6" d="M146.58,232.89c1.13.33,1.08,1.47,1,2.51h-1c-.04-.19-.55-.51-.56-1.26s.49-1.01.56-1.25Z"/>
      <path class="cls-6" d="M156.12,225.36c-.22.68-.19,1.75-.51,2.51-.64.33-1.38-.5-1.5-.5l2.01-2.01Z"/>
      <path class="cls-6" d="M136.55,270.55l2,.76v.74s-1,0-1,0c-.33-.5-.64-1.03-1-1.51Z"/>
      <path class="cls-6" d="M223.39,117.39c.11-.18-.29-.91.27-1.03l1.74.02c.03.33-.01.67,0,1h-2.01Z"/>
      <path class="cls-6" d="M216.86,119.9c-.99-.02-1.6-.48-1.51-1.51.04.05.79-.08,1.27.49.29.34.16.93.24,1.02Z"/>
      <path class="cls-6" d="M148.09,243.94c0-.66.06-1.36,0-2.01.75.16.78,1.8,0,2.01Z"/>
      <path class="cls-6" d="M214.86,124.92c-.21-1.32,0-.95,0-1.51v1.51Z"/>
      <path class="cls-6" d="M157.13,224.35l-1,.5c.3-.6.69-.36,1-.5Z"/>
      <path class="cls-6" d="M148.09,240.92s-.44-.13-.5-.5l.5.5Z"/>
      <path class="cls-6" d="M147.59,247.95c.1-.21.48-.4.5-.5l-.5.5Z"/>
      <path class="cls-6" d="M187.75,217.32c.03-.23.27-.44.5-.5-.06.24-.27.43-.5.5Z"/>
      <path class="cls-6" d="M192.27,209.79c.13-.16.34-.49.5-.5-.14.19-.33.34-.5.5Z"/>
      <path class="cls-6" d="M206.32,128.44l.5-.5c-.05.38-.49.47-.5.5Z"/>
      <path class="cls-6" d="M168.17,237.41s.14-.42.5-.5l-.5.5Z"/>
      <path class="cls-6" d="M169.68,236.91s.04-.42.5-.5l-.5.5Z"/>
      <path class="cls-6" d="M233.93,270.55c-.14,1.82.4,4.26-.37,5.91s-5.03,3.42-6.17,4.87c-1.69,2.14-.69,5.47-5.54,4.06-.88-.62-.34-3.21-.47-4.3l1.51,2.01c2.77.37,2.61-1.82,3.74-3.04,1.33-1.44,5.6-4.57,6.34-5.71.87-1.35-.03-2.76.97-3.8Z"/>
      <path class="cls-6" d="M219.37,266.03c.11-.12-.02-.97.47-1.27.9-.56,2.29.01,3.24-.31.82-.27.86-2.73,3.85-.63,1.45,5.3-3.74,5.25-3.63,9.65l-2.92,1.09c.1-4.57,2.96-4.81,4.99-8.23-1.51-2.51-3.87-.76-6-.31Z"/>
      <path class="cls-6" d="M239.96,139.48c-.83-.05-1.69-.09-2.37-.65-2.06-1.71-4.1-4.72-5.9-6.41-.82-.77-2.52-.13-2.11-3.16.06-.46.73-1.01.84-1.83,3.02,4.14,6.5,7.92,9.54,12.05Z"/>
      <path class="cls-6" d="M212.85,276.08c-.35-1.77,1.86-.87,2.7-.94l.81,1.59c3.61,1.47.21-3.21.12-4.51-.07-1.05.83-1.41.89-1.66,1.23,1.78,4.46,7.45,1.15,8.45s-1.68-2.71-5.67-2.92Z"/>
      <path class="cls-6" d="M152.61,294.15c.02-.14-1.12-1.65.33-2.55l6.19-.46c-.73,3.18-.16,5.13,2.51,7.03-.3.06-.67.74-1.73.54-2.42-.45-2.51-4.64-2.29-6.57-2.27-.49-3.13,1.53-5.02,2.01Z"/>
      <path class="cls-6" d="M233.93,267.04c-2.73-3.05.61-3.46,2.05-4.73.61-.54.84-1.43,1.52-1.99,1.16-.97,3.75-.65,2.46-2.82,1.27.39,1.27,1.98.76,3.02-.6,1.22-4.85,2.35-5.81,3.73-.19.27-.92,2.44-.97,2.8Z"/>
      <path class="cls-6" d="M241.96,183.68c.92,2.19,3.05,4.93,3.03,7.28-.02,1.86-2.54.29-3.03.25.83-1.87-.55-3.88-.56-5.81,0-.98.54-1.52.56-1.72Z"/>
      <path class="cls-6" d="M166.66,298.17c.1.13,1.81.52,1.51,2.51-1.85.54-3.44,1.88-5.52,1.5-.33-2.21,2.67-2.76,4.01-4.01Z"/>
      <path class="cls-6" d="M208.33,283.11c-3.91.31-3.45-7.96.22-7.56l.29,1.03c-1.33,1.63-1.87,3.03-1.38,5.16.13.56.77,1.02.87,1.36Z"/>
      <path class="cls-6" d="M245.48,173.63c-2.32,3.75-2.81,3.62-3.51,8.54-1.51.26-1.03-.71-.94-1.68.29-3.34.28-6.69,4.46-6.85Z"/>
      <path class="cls-6" d="M188.25,298.67c.26-3.09,1-7.75,4.52-8.54-1.03,2.84-2.86,4.98-3.27,8.05-.41.62-.98.35-1.25.49Z"/>
      <path class="cls-6" d="M233.93,203.76c.69,2.16,2.06,3.97,3.01,6.03-3.1.02-3.37-1.98-3.79-4.5-.16-.97-.8-1.75.78-1.53Z"/>
      <path class="cls-6" d="M244.98,147.52c2.14.55,2.87,3.87,3.51,5.52-1.83.55-3.66-3.2-3.93-4.43-.17-.77.42-1.03.42-1.09Z"/>
      <path class="cls-6" d="M236.94,230.88c-.59,1.93-1.48,3.5-2.01,5.02-2.29-1.24-.49-5.36,2.01-5.02Z"/>
      <path class="cls-6" d="M206.32,291.64l-2.81,4.49c-1.73.31-2.87-.88-3.21-2.48l3.71.03c.48-2.52,1.52-1.58,2.31-2.04Z"/>
      <path class="cls-6" d="M236.94,191.71c-.44,1.43-2.36,2.86-3.51,4.02,0-.06-.56-.37-.44-1.11.15-.88,1.99-3.11,2.83-3.35.66-.19,1.07.45,1.13.45Z"/>
      <path class="cls-6" d="M248.49,167.61c-.67,2.76-1.21,2.97-2.51,5.02-.04-2.32-.59-5.15,2.51-5.02Z"/>
      <path class="cls-6" d="M243.97,145.51c-1.38.08-1.27.37-2.08-.71-1.06-1.41-1.77-3-1.43-4.81,1.24,1.71,2.35,3.72,3.51,5.52Z"/>
      <path class="cls-6" d="M239.45,225.36c-.31,1.4-.65,3.31-2.01,4.02.37-1.36-.44-3.86,2.01-4.02Z"/>
      <path class="cls-6" d="M238.95,215.81c-1.49.1-2.94-2.95-1-3.52.38,1.19.76,2.27,1,3.52Z"/>
      <path class="cls-6" d="M239.45,257.5c-.64-.14-1.75.3-2.29-.47l-.22-2.54c.81,1.02,1.79,1.92,2.51,3.01Z"/>
      <path class="cls-6" d="M197.79,284.61c-.97.27-2.21.93-3.01,1.51-.14-1.09.18-1.67,1.14-2.15,1.62-.81,1.64.58,1.87.64Z"/>
      <path class="cls-6" d="M239.45,221.84c.03.97.11.76,0,2.01l-1.51-1.75,1.51-.26Z"/>
      <path class="cls-6" d="M233.93,246.45c-.84-1.51-.85-4.92,0-6.53-.15,1.95-.11,4.56,0,6.53Z"/>
      <path class="cls-6" d="M250,159.07c-.03,1.19-.37,1.67-.5,2.51h-1c-.13-1.31-.1-2.54,1.5-2.51Z"/>
      <path class="cls-6" d="M234.94,251.97c.04.08.79,1.18,1,1.51l-2-.76v-.74s1,0,1,0Z"/>
      <path class="cls-6" d="M238.95,217.32c.01.08.4.54.5,1.51l-1.5-.76.04-.71.96-.04Z"/>
      <path class="cls-6" d="M163.65,297.67l1.97-1.46c.14.28-.05.87.04.96-.6.49-1.34.36-2.01.5Z"/>
      <path class="cls-6" d="M230.92,123.92c-.07,1.06-.49,1.43-.5,1.51l-.95-.04-.05-.7,1.5-.76Z"/>
      <path class="cls-6" d="M220.88,278.08h1s0,1.25,0,1.25l-1.01.25c-.06-.48.04-1.02,0-1.51Z"/>
      <path class="cls-6" d="M187.75,298.67c-.05.02-.14.42-1,.5l1-.5Z"/>
      <path class="cls-6" d="M192.77,288.13l.5-.5c-.12.21-.47.39-.5.5Z"/>
      <path class="cls-6" d="M234.43,249.46s-.45-.12-.5-.5l.5.5Z"/>
      <path class="cls-6" d="M250,157.06c-.01-.07-.45-.26-.5-.5l.5.5Z"/>
      <path class="cls-6" d="M248.99,154.05s-.38-.17-.5-.5l.5.5Z"/>
      <path class="cls-6" d="M244.98,146.51c-.03-.12-.39-.3-.5-.5l.5.5Z"/>
      <path class="cls-6" d="M237.95,211.29c-.04-.11-.41-.27-.5-.5l.5.5Z"/>
      <path class="cls-6" d="M172.69,299.68l.5-.5s-.21.45-.5.5Z"/>
      <path class="cls-6" d="M233.93,202.76s-.43-.1-.5-.5l.5.5Z"/>
      <path class="cls-6" d="M248.49,165.6c.1-.41.49-.47.5-.5l-.5.5Z"/>
      <path class="cls-6" d="M248.99,163.09c.07-.39.5-.47.5-.5l-.5.5Z"/>
      <path class="cls-6" d="M233.93,238.41c.06-.38.49-.47.5-.5l-.5.5Z"/>
      <path class="cls-6" d="M220.88,276.58l-.5-.5s.48.14.5.5Z"/>
      <path d="M211.34,253.48v-2.51c3.48-.42,3.42,2.96,0,2.51Z"/>
      <path d="M221.64,178.15c1.36-.31,1.72,2.23.49,2.51-1.36.31-1.72-2.23-.49-2.51Z"/>
      <path d="M203.57,233.4c1.71-.46,2.31,1.65.99,2-1.71.46-2.31-1.65-.99-2Z"/>
      <path d="M149.09,286.62c.8.8-.7,2.3-1.5,1.5s.7-2.3,1.5-1.5Z"/>
    </g>
  </g>
</svg>