<?xml version="1.0" encoding="UTF-8"?>
<svg id="Calque_2" data-name="Calque 2" xmlns="http://www.w3.org/2000/svg" viewBox="0 0 393 335">
  <defs>
    <style>
      .cls-1 {
        fill: #fcfcfc;
      }

      .cls-2 {
        fill: #151414;
      }

      .cls-3 {
        fill: #171616;
      }

      .cls-4 {
        fill: #161415;
      }

      .cls-5 {
        fill: #ec4040;
      }

      .cls-6 {
        fill: #ec3f3f;
      }

      .cls-7 {
        fill: #161515;
      }

      .cls-8 {
        fill: #171516;
      }

      .cls-9 {
        fill: #181717;
      }

      .cls-10 {
        fill: #191818;
      }

      .cls-11 {
        fill: #1b1a1a;
      }

      .cls-12 {
        fill: #1a1919;
      }

      .cls-13 {
        fill: #372f30;
      }
    </style>
  </defs>
  <g id="Calque_1-2" data-name="Calque 1">
    <g>
      <path class="cls-4" d="M201,.27c29.95,3.33,54.16,31.55,68.81,55.65,19.99,32.91,34.48,74.73,32.24,113.76-4.76,82.79-103.85,127.98-170.37,78.22-65.36-48.89-46.39-135.25-9.48-194.98C135.34,31.63,161.81,3.08,188,.27c3.27-.35,9.74-.36,13,0ZM289.88,132.04c-11.14-64.77-75.53-175.53-145.85-94.28-22.01,25.44-36.78,61.22-44.09,93.81.27,1.93,34.79,5.29,38.58,5.57,31.39,2.35,62.72,1.41,94-.06,1.61-.08,3.23.79,4.83.7l52.55-5.74ZM165.99,146.16l-68-5.01-.9,18.34c.61,1.84,7.88,2.29,10.41,2.63,13.12,1.78,26.74,2.04,39.97,2.98,2.99-.58,14.71-12.94,17.03-15.96.77-1,1.94-1.27,1.49-3ZM291.92,141.24l-69.91,7.4,17.69,17.34c7.87-1.1,15.88-1.13,23.79-1.85,3.86-.35,27.78-2.93,29.1-3.9.8-.59,1.33-1.5,1.32-2.51l-1.99-16.48ZM181,147.15l60.5,60.93c2.17-3.31,10.7-9.1,12.03-11.99.51-1.1.78-1.88,0-2.96l-46.03-45.98h-26.5ZM172.64,154.22l-40.56,40.53c-.21,1.21,10.77,12.92,12.58,13.24l5.88-3.86,35.4-36.63-13.29-13.28ZM248,174.13c-2.57,2.2,18.81,15.02,17.84,21.25-.41,2.64-20.78,22.88-23.59,23.56-1.01.24-1.36.08-2.23-.31-.94-.42-12.9-12.01-15.04-14.02-9.42-8.86-18.16-18.52-27.43-27.54-2.32-1.52-5.79-1.52-8.11,0l-39.42,39.54c-2.49,2.29-4.51,3.34-7.57,1.54-1.22-.72-19-18.49-20-19.98-5.33-7.93,10.21-15.91,15.05-22.04.85-1.07,2.24-1.22.52-2.51l-41.02-3.48c5.27,68.34,77.18,109.02,139.67,81.11,32.29-14.42,53.43-46.3,57.32-81.1l-45.99,3.99Z"/>
      <path class="cls-9" d="M0,324.01c1.64-.6,2.25-2.38,2.57-3.93,2.08-9.91.98-20.14-.57-30.04l14.51,2.98c2.48,5.33,1.2,11.34,1.48,17.01l9.89-1.12,3.15-19.84c3.38,1.36,14.89-.56,14.95,3.4.04,2.67-5.4,12.1-3.98,13.55l6.02.52-1.01,14.48h-5.01s1.01,10.99,1.01,10.99l-14.05.58c-2.19-10.07,2.11-14.54-10.94-16.57l-1.05,15.94c-6.01-.5-10.93-1.09-16.96.05v-7.99Z"/>
      <path class="cls-8" d="M85,335c-.47-2.34-.52-10.39-2.57-10.89-4.96,2.25-9.29-.64-14.3.03l-2.17,8.84-17.95-1.98c-1.35-1.22,8.52-13.85,9.98-15.51.07-2.36-2.96-.86-1.99-4.47,6,1.48,5.73-7.36,9.88-10.66.82-3.07-1.96-2.34-2.84-4.11-.64-1.28-.72-4.57-1.03-6.2.33-.36,7.8,1.97,9.55,1.87,3.1-.18,7.97-8.63,8.56-1.04.62.6,3.1-.34,4.41,1.14s4.8,15.4,5.56,15.94l5.95-.52c.61,3.64,5.7,8.58,3.52,11.66-1.07,1.51-4.44-.46-3.58,3.44.53,2.42,5.69,4.18,5.02,7.92l-13.99,4.54h-2ZM79,315.01c.88-.87-2.25-11.98-5.49-11.98-1.62.38-3.2,9.94-3.51,11.98h9Z"/>
      <path class="cls-2" d="M251,328.01l9.02-11.57-1.03-5.42,3.87-.12c-.27-5.69,5.96-7.19,5.18-12.32-.38-2.49-4.27-3.98-3.04-7.54,6.08-.31,9.88,2.61,14.99-2.01v3.01s7.8.22,7.8.22l5.22,16.76,5.98-3c-.29,3.73,3.8,8.99,2.87,12.27-.42,1.49-2.89,2.31-2.89,4.2s4.71,5.91,3.03,9.51c-4.1-.26-8.58.6-12.01,3h-3c1.94-14.25-6.3-10.95-16.86-10.85l-1.15,8.86-17.45-1.94-.55-3.06ZM272,315.01c4.83-.13,10.45,1.71,8.54-5.02-.34-1.2-3.16-6.52-4.06-6.96-1.85-.91-1.47,1.43-1.75,2.2-.51,1.41-3.35,9.19-2.74,9.78Z"/>
      <path class="cls-9" d="M393,289.04v14.99c-5.48.1-15.87-6.06-20.57-5.98-3.55.06-2.29,5.5-2.44,7.98l9.9.11.66,7.93-2,.96-8.54-3,.43,10.05c2.25,3.22,18.42-4.23,20.61-2.63l.95,15.57h-2c-11.78-5.75-24.43-3.66-37-3,2.17-11.12,3.84-21.98,2.95-33.41-.21-2.66-3.8-5.61-.29-8.62,12.29,1.2,24.76-2.19,37.34-.92Z"/>
      <path class="cls-2" d="M151,330l-16,4.01-3.54-13.02-8.47,1.02-.05,9.95-16.94,2.04,4.03-17.4c-2.68-1.51-3.55-2.18-3.03-5.58l2.5.69,1.36-1.32.13-8.35-5.99,2-1.99-14.96c8-2.47,18.05-2.75,26.47-2,5.95.53,13.1,2.35,17.55,6.44,9.64,8.86.72,13.47-4.03,22-.11,3.39,9.74,12.65,7.99,14.51ZM123,299.03v13.99c5.17-1.12,11.11-5.3,11.18-10.87,3.99.15,4.11-1.63.31-3.1-4.3-1.66-7.2-.04-11.49-.02Z"/>
      <path class="cls-2" d="M202,290.04v14.49c0,5.26-5.96,18.24-9.94,22.03-4.84,4.61-14.74,8.12-21.46,7.37-4.77-.53-3.01-2.73-3.9-3.56-1.51-1.41-3.93-2.28-5.34-3.72-6.96-7.14-8.94-25.08-6.22-34.47l16.86-1.14c-.77,10.48-6.19,18.39-.28,28.73,1.33,2.33,6.64.21,8.65-.89,11.87-6.53,2.2-28.4,3.64-29.84,6.44.58,11.4,2.38,18,1Z"/>
      <path class="cls-7" d="M205,334c2.36-14.66,3.83-29.04,3-43.97h15s-1.99,17.99-1.99,17.99c1.05,1.16,9.03-7.34,9.97-8.51,2.36-2.93,4.89-6.8,6.1-10.4,2.84-2.03,10.98,8.32,14.87,7.97.88,4.35-3.09,4.33-5.21,5.93-.85.64-1.11,1.94-1.82,2.4-1.5.97-9.41,3.91-9.93,4.63,3.02,7.47,9.68,12.29,15,17.96-3.44,3.95-9.56,3.51-14,6-2.35.11-2.61-1.4-3.54-2.96-1.85-3.09-7.18-14.95-10.95-15.04l.47,14.95c-5.59,1.28-11.42,1.54-16.98,3.04Z"/>
      <path class="cls-3" d="M348,292.05c.29,2.21-1.94,2.89-2.77,4.71-1.37,3.03-1.81,6.44-3.4,9.59-2.96,5.84-7.73,10.18-11.81,15.17l16.98-5.5,2.01,15.98c-5.22-.88-10.48,1.27-15.46,1.02-2.73-.14-5.65-1.53-8.33-1.72-4.37-.3-9.46.28-13.78-.21-1.67-.19-1.75-2.98-4.43-2.09l18.6-21.42,5.37-10.06-23.96,8.49c-1.99-3.46.95-5.37,1.06-8.49.1-2.65-2.34-5.61.33-7.57,1.87-1.38,14.12-2.02,17.14-1.95s21.26,2.46,22.45,4.05Z"/>
      <path class="cls-1" d="M289.88,132.04l-52.55,5.74c-1.6.09-3.22-.78-4.83-.7-31.28,1.48-62.61,2.42-94,.06-3.79-.28-38.31-3.64-38.58-5.57,7.31-32.59,22.08-68.38,44.09-93.81,70.32-81.26,134.72,29.5,145.85,94.28ZM164.65,40.35c-2.71.9-1.78,4.59-.7,6.44.53.91,13.17,13.5,14.06,13.92,3.83,1.76,6.44.41,5.97-3.9s-14.23-18.17-19.34-16.46ZM207.15,61.07c1.09.69,4.49.21,5.84-.37.84-.36,12.57-12.06,13.06-12.91,2.69-4.65.6-9.62-5.04-7.03-1.47.68-14.9,14.74-15.03,16-.09.85.69,4.02,1.17,4.32ZM155.74,63.37c-9.45,1.74-6.83,17.81,3.53,15.66s5.26-17.28-3.53-15.66ZM227.26,76.95c7.3,7.91,18.96-5.01,10.72-12.21-7.1-6.2-17.17,5.22-10.72,12.21ZM188.74,73.45c-9.42,1.47-18.8,10.27-21.93,19.06-1.4,3.95-4.46,15.37,2.64,14.72,4.97-.45,4.49-10.93,6.34-14.75,7.41-15.35,33.17-14.59,39.43,1.99,1.4,3.7,1.05,13.21,6.23,12.76l2.64-1.46c4.16-20.75-15.55-35.42-35.35-32.32Z"/>
      <path class="cls-1" d="M248,174.13l45.99-3.99c-3.89,34.8-25.04,66.68-57.32,81.1-62.5,27.91-134.4-12.77-139.67-81.11l41.02,3.48c1.73,1.29.33,1.44-.52,2.51-4.84,6.13-20.39,14.11-15.05,22.04,1,1.49,18.78,19.26,20,19.98,3.06,1.8,5.08.75,7.57-1.54l39.42-39.54c2.32-1.52,5.79-1.52,8.11,0,9.27,9.02,18.01,18.68,27.43,27.54,2.14,2.01,14.1,13.59,15.04,14.02.87.39,1.22.56,2.23.31,2.81-.68,23.18-20.92,23.59-23.56.98-6.23-20.41-19.06-17.84-21.25Z"/>
      <path class="cls-13" d="M181,147.15h26.5l46.03,45.98c.78,1.08.51,1.86,0,2.96-1.34,2.89-9.86,8.69-12.03,11.99l-60.5-60.93Z"/>
      <path class="cls-13" d="M291.92,141.24l1.99,16.48c0,1.02-.53,1.92-1.32,2.51-1.32.98-25.23,3.55-29.1,3.9-7.92.72-15.92.75-23.79,1.85l-17.69-17.34,69.91-7.4Z"/>
      <path class="cls-13" d="M165.99,146.16c.45,1.73-.72,2-1.49,3-2.32,3.02-14.04,15.38-17.03,15.96-13.23-.95-26.85-1.2-39.97-2.98-2.54-.34-9.8-.8-10.41-2.63l.9-18.34,68,5.01Z"/>
      <path class="cls-13" d="M172.64,154.22l13.29,13.28-35.4,36.63-5.88,3.86c-1.8-.32-12.79-12.02-12.58-13.24l40.56-40.53Z"/>
      <path class="cls-11" d="M188.74,73.45c19.81-3.1,39.51,11.58,35.35,32.32l-2.64,1.46c-5.18.46-4.83-9.05-6.23-12.76-6.26-16.58-32.03-17.34-39.43-1.99-1.84,3.82-1.36,14.3-6.34,14.75-7.1.65-4.04-10.78-2.64-14.72,3.12-8.79,12.51-17.58,21.93-19.06Z"/>
      <path class="cls-12" d="M207.15,61.07c-.48-.3-1.25-3.47-1.17-4.32.13-1.26,13.56-15.32,15.03-16,5.63-2.59,7.73,2.38,5.04,7.03-.49.85-12.22,12.55-13.06,12.91-1.35.58-4.75,1.06-5.84.37Z"/>
      <path class="cls-10" d="M164.65,40.35c5.11-1.7,18.89,12.28,19.34,16.46s-2.14,5.66-5.97,3.9c-.9-.41-13.53-13.01-14.06-13.92-1.08-1.85-2.01-5.54.7-6.44Z"/>
      <path class="cls-5" d="M227.26,76.95c-6.45-6.99,3.61-18.41,10.72-12.21,8.25,7.2-3.41,20.12-10.72,12.21Z"/>
      <path class="cls-6" d="M155.74,63.37c8.79-1.62,13.95,13.5,3.53,15.66s-12.98-13.92-3.53-15.66Z"/>
    </g>
  </g>
</svg>