<?xml version="1.0" encoding="UTF-8"?>
<svg id="Calque_2" xmlns="http://www.w3.org/2000/svg" viewBox="0 0 50.38 81.04">
  <g id="Calque_1-2" data-name="Calque_1">
    <path d="M5.53,30.06c0-1.64-.02-3.11,0-4.57.02-1.95.36-3.85.9-5.71,1.94-6.66,6.45-10.53,13.15-11.98.46-.1.92-.16,1.37-.26.13-.03.24-.11.44-.19.16-.58.33-1.22.51-1.85.95-3.22,3.06-5.09,6.42-5.41,3.42-.32,6.64.44,9.58,2.18,3.48,2.06,4.67,5.42,3.39,9.28-.21.63-.47,1.24-.73,1.91.18.27.34.56.55.8,2.05,2.41,3.09,5.25,3.59,8.33.32,1.98.39,3.98.31,5.98-.02.46,0,.93,0,1.5,1,.89,1.93,1.93,2.38,3.29.98,2.94,1,5.89-.03,8.82-.22.62-.57,1.2-.94,1.75-.62.93-1.51,1.5-2.63,1.64-1.26.16-2.5.33-3.76-.08-.36-.11-.78-.02-1.24-.02-1.29,2.72-3.59,4.59-5.72,6.58-1.67,1.56-1.69,1.55-1.44,3.8.09.86.24,1.72.4,2.57.27,1.43,1.06,2.42,2.51,2.81,1.22.33,2.44.65,3.67.94,1.17.28,2.36.45,3.51.79,1.02.3,2.02.68,2.96,1.18,3.12,1.64,4.92,4.23,5.22,7.76.2,2.26.31,4.52.45,6.78.03.46.02.93-.02,1.4-.05.54-.35.84-.9.9-.46.05-.93.05-1.4.05-15.2,0-30.4,0-45.59,0-2.45,0-2.54-.04-2.42-2.45.13-2.53.34-5.05.65-7.56.36-2.91,2-5.02,4.45-6.54,1.55-.96,3.25-1.52,5.02-1.89,1.63-.34,3.25-.74,4.88-1.07,2.08-.43,3.29-1.63,3.49-3.78.04-.4.15-.79.19-1.18q.32-2.94-1.9-4.98c-.29-.27-.61-.52-.87-.82-.82-.93-1.83-1.47-3.04-1.77-1.9-.47-3.62-1.36-5.03-2.74-.4-.39-.83-.62-1.39-.7-1.38-.2-2.26-1.07-2.9-2.23-.29-.52-.55-1.07-.72-1.64-.68-2.21-.72-4.46-.29-6.72.37-1.96,1.23-3.65,2.97-4.89ZM1.99,78.84c.99.4,1.8.27,2.58.27,13.72,0,27.43,0,41.15,0,.47,0,.93.02,1.4-.01.38-.02.75-.11,1.16-.17.04-.38.12-.63.1-.89-.15-2.19-.24-4.39-.51-6.57-.29-2.32-1.56-4.07-3.55-5.29-2.21-1.35-4.67-1.84-7.22-2.11-.5.52-.97.99-1.41,1.48-3.01,3.3-6,6.6-9.02,9.89-1.28,1.4-1.52,1.4-2.82-.03-3.02-3.29-6.01-6.59-9.02-9.89-.45-.49-.91-.96-1.4-1.47-2.09.19-4.11.58-6,1.44-.84.38-1.64.89-2.37,1.46-1.18.93-2,2.16-2.32,3.64-.57,2.67-.65,5.4-.75,8.23ZM31.03,25.17c-.28.18-.41.23-.5.33-3.06,3.51-6.92,5.52-11.48,6.33-1.89.34-3.74.93-5.6,1.45-.69.19-1.43.36-1.86,1.07v8.45c.91.12,1.39.64,1.72,1.45.34.85.86,1.64,1.37,2.42.41.63.97,1.1,1.79,1.11.9,0,1.83.45,2.64-.38.3-.31.81-.55,1.24-.56,1.92-.05,3.85-.02,5.78,0,.13,0,.26.06.38.11,1.03.37,1.59,1.23,1.52,2.31-.07.96-.72,1.77-1.68,2-.45.1-.92.11-1.39.11-1.4.01-2.8,0-4.2.02-.22,0-.45.11-.83.21,1.47,1.56,3.03,2.41,5.01,2.46,1.67.04,3.2-.35,4.45-1.45,2.04-1.81,4.06-3.64,6-5.57.69-.68,1.1-1.65,1.61-2.5.24-.39.35-.89.65-1.22.29-.31.75-.46,1.2-.71,0-2.95,0-5.88,0-8.8,0-.65-.21-1.17-.69-1.58-1.02-.86-2.02-1.73-3.07-2.55-1.22-.95-2.3-2.02-3.19-3.28-.27-.38-.55-.74-.89-1.2ZM7.98,29.57c.85.17,1.65.15,2.24.49.64.37,1.09,1.08,1.51,1.52,2.7-.63,5.28-1.27,7.87-1.84,4.2-.93,7.63-3.04,10.19-6.52.2-.27.37-.56.59-.8.44-.48,1.18-.44,1.54.1.22.33.38.7.57,1.05.72,1.37,1.59,2.63,2.76,3.64,1.31,1.13,2.68,2.17,3.88,3.13,1.25-.31,2.32-.57,3.38-.83-.12-8.31-8.64-15.89-17.59-15.67-8.88.21-17.24,7.93-16.94,15.74ZM23.69,7.31c.37.07.74.16,1.13.21,2.12.28,4.17.8,6.11,1.72.53.25,1.13.38,1.72.48,1.86.31,3.59.94,5.24,1.84.32.18.69.28,1.03.41,1.6-3.15,1.2-5.75-1.29-7.53-2.87-2.06-6.14-2.84-9.63-2.34-2.62.37-4.15,2.3-4.3,5.22ZM15.86,63.47c.2.36.27.55.39.7,2.82,3.1,5.64,6.21,8.48,9.3.16.17.42.26.61.37,1.84-1.67,8.47-9.03,9.32-10.36-.73-.31-1.45-.62-2.21-.95-2.26,1.22-4.59,2.16-7.2,2.17-2.61,0-4.91-1.05-7.18-2.15-.72.3-1.39.58-2.21.93ZM42.23,21.4c.05-.17.14-.3.12-.41-.77-3.33-2.5-5.98-5.49-7.74-1.33-.78-2.77-1.3-4.29-1.56-1.05-.18-2.06-.47-3.04-.9-3.06-1.35-6.25-1.78-9.56-1.08-5.93,1.25-9.86,4.7-11.58,10.57-.06.21,0,.45,0,.79,1.42-1.54,2.67-3,4.04-4.33,1.34-1.3,2.96-2.26,4.66-3.04,1.77-.8,3.61-1.32,5.54-1.6,1.94-.28,3.85-.21,5.76.08,1.92.3,3.75.91,5.49,1.77,1.68.83,3.26,1.84,4.57,3.18,1.32,1.36,2.52,2.84,3.79,4.28ZM30.7,61.16c-.45-2.13-.85-4.05-1.27-6.05-1.42.5-2.8.87-4.28.88-1.48.01-2.84-.47-4.18-.82-.41,2.01-.8,3.93-1.21,5.92,3.62,2.16,7.23,2.19,10.94.07ZM42.6,31.95c-1.57-.3-1.73-.19-1.79,1.18,0,.13,0,.27,0,.4,0,2.8,0,5.59,0,8.39,0,.33,0,.67.03,1,.07.63.32.82,1.1.84.19,0,.38-.09.58-.14.08-.19.21-.37.21-.56.02-3.46.03-6.92.03-10.39,0-.25-.11-.5-.16-.73ZM9.35,43.67c.1-.36.2-.55.21-.74,0-3.47.01-6.93,0-10.4,0-.24-.17-.48-.28-.78-.5.03-.94.05-1.41.07-.1.33-.24.57-.24.82-.01,3.4-.01,6.8,0,10.2,0,.25.15.5.25.82h1.47ZM44.93,33.28c-.08.28-.18.45-.18.62,0,2.64,0,5.28.02,7.93,0,.09.13.18.26.36.64-.5.73-1.23.89-1.9.42-1.83.38-3.68-.11-5.49-.14-.52-.2-1.16-.88-1.52ZM5.39,42.4c.37-2.12.34-7.57,0-8.94-.75.97-1,1.58-1.09,3.03-.12,1.92-.13,3.83,1.08,5.92ZM26.16,49.29c-.5-.36-.64-.55-.78-.55-1.44-.02-2.89-.03-4.34,0-.16,0-.32.27-.65.56,1.94.19,3.63.18,5.76,0ZM11.91,46.62q-.35-1.26-1.42-.92c.44.28.79.51,1.42.92Z"/>
  </g>
</svg>