<?xml version="1.0" encoding="UTF-8"?>
<svg id="Calque_2" data-name="Calque 2" xmlns="http://www.w3.org/2000/svg" viewBox="0 0 109.77 107.03">
  <g id="Calque_1-2" data-name="Calque 1">
    <g>
      <path d="M51.46.8L55.87.04c.96.11,1.4,1.06,2.18-.04l.17.5c.08.07.55-.23.89-.16,1.73.31,4.48.75,6.26.8.91.02.73-.73,1.43.53,1.5-.68,1.28.04,1.74.3,1.83,1.03,3.17.66,4.96,1.42.93.4.77.33,1.97.62.45.11,4.52,1.92,4.74,2.07.2.14.17.62.47.7.41.1,1.19-.16,1.46.03.17.12.09.86.51,1.13s1.05-.14,1.49.09c.35.19.59.89,1.04,1.24,1.48,1.19,3.46,2.22,4.88,3.31,3.87,2.96,6.84,6.67,9.8,10.81,3.17,4.43,4.73,7.68,6.38,12.89.05.17.63.18.73.91.06.42-.21,1.04-.1,1.22.15.25.85.31.95.72.05.24-.26.65-.17,1.03.88,3.47,1.73,6.36,2.03,10.06.25,3.05-.14,5.99-.14,8.93,0,3.65-1.26,7.41-2.05,10.97-.19.84-.16,2.04-.22,2.13s-.55.04-.75.51c-.3.7-.49,2.13-.76,2.92-.77,2.27-2.23,5.02-3.42,7.31-.8,1.54-2.55,2.94-2.84,3.5s-.27,1.26-.66,1.96c-.79,1.39-2.82,2.88-3.69,4.02-.48.63.1,1.26-1.4.99-.03.4.09.86-.04,1.23-.27.78-3.64,3.71-4.39,4.15-.63.37-1.35.12-1.88.32-.42.15-.38.77-.65.82-.44.09-.97-.28-1.39-.28-1.54,0-2.05.24-3.69-.54-1.47-.7-1.94-1.89-2.8-3.13-.21-.3-.72-.4-.82-.58-.12-.21.18-.77.1-1.21-.07-.4-.5-.7-.46-1.15s.92-2.9,1.23-3.27c.95-1.14,1.73-2.7,2.52-3.4.56-.5,1.82-1.01,2.04-1.23.14-.13-.04-.5.42-.87.59-.48,1.16-.14,1.28-.22.67-.45,2.65-3.28,3.44-4.06,1.89-1.85,3.25-4.25,4.58-6.7,2.08-3.84,2.73-5.63,3.55-10,.45-2.39,1.07-6.49.85-8.91-.08-.9-.91-2.69-1.03-3.52-.08-.55.39-.77.39-1.22.03-1.5-.89-2.94-1.18-4.11s.52-2.12-.39-3.83c-1.68-3.14-3.19-6.36-5.12-9.35-1.63-2.51-4.41-5.7-6.82-8.01-.15-.14-.6,0-.77-.25-.19-.29-.11-.92-.32-1.18-.19-.23-2.44-.66-3.11-1.19-.45-.36-.59-1.18-.85-1.35-.44-.28-1.56-.2-2.4-.82-1.18-.87-2.05-1.48-3.4-2.06-.52-.22-2.27-.11-2.55-.35-.17-.15.02-.86-.51-1.04-.97-.33-3.29-.44-4.41-.67-1.2-.25-2.33-.91-3.58-.91-.54,0-1.59.6-2.37.43-.12-.03-1.55-.87-1.73-.89-3.76-.3-14.21,1.91-17.46,3.7-.26.14-1.2,1.22-1.76,1.41l-.55-.57c-1.29-.02-2.67,2.36-3.15,2.5s-1.09-.08-1.45.11-.77,1.71-.62,2.2c-1.67-.42-1.48.37-2.15.8-1.21.79-2.17,1.15-3.11,2.4-.33.43-.77,1.8-1.02,2.09-.3.35-.99.07-1.02.11-.11.14-.69,1.58-.92,1.98-.3.51-1.41.93-.25,1.23-.4,1.01-1.69,1.29-2.13,1.84-.34.43-.34,1.77-1.16,2.79-.47.59-1.38.86-1.44.93-.21.24-.41,2.59-.58,3.24-1.05,3.89-2.6,7.81-2.84,11.79-.09,1.5,1.01,4.43-.32,5.39v.56c1.7.76.68,3.93,1.42,5.29.34.61,1.71.77,1.1,2.46l-.82.16,1.39,1.03c-.06.54-.29.82-.19,1.44.21,1.33,2.04,3.74,2.19,4.38.08.35-.11.83.06,1.15.05.09,1.44,1.02,1.55,1.26.2.46.08,1.6.43,1.84.27.19.95-.05,1.39.46.31.36-.2,1.75,1.22,2.99.8.69,3.25,2.94,3.83,3.78.32.46.17,1.04.33,1.23.1.13,2.54,1.21,2.95,1.57.56.48,1.1,1.9,1.29,2.09.25.24,1.03.16,1.41.37,3.27,1.86,4.92,3.59,8.46,5.15,5.06,2.23,7.22,2.67,12.52,3.34.68.09,1.22.63,2.24.55.87-.07,1.17-.49,1.47-.54.35-.05.66.46,1.08.51.19.02,3.5-.29,3.87-.35,3.32-.54,9.26-4.01,9.1,2.3-.03,1.16-1.46,2.25-2.42,2.68-.9.4-1.75.29-2.57.53-8.16,2.46-15.48,3.31-23.82,2.46-1.07-.11-4.29-.11-5-.28-.2-.05-.16-.53-.38-.57-.4-.08-1.1.19-1.89-.02-3.52-.92-6.76-2.58-9.99-4.2-.64-.32-4.02-1.39-4.26-1.76l.24-.52c-1.86.13-1.71-2.3-3.67-2.27l.29-.56c-.09-.07-.53.2-.86.11-.6-.18-2.71-2.13-3.23-2.66-.96-.97-1.94-2.12-2.88-3.11-.43-.45-1.13-.28-1.18-.32-.27-.28-.31-1.48-.64-2.04-.49-.81-1.45-1.92-2.1-2.96-.51-.82-1.24-1.57-1.58-2.52l-.51.23c.31-.68-.59-.93-.58-1,.02-.38.44-.6.47-.84.06-.39-1.59-2.24-1.85-2.62-.39-.56.14-1.22-1.17-1.34l.26-1.94c-1.47-.75-1.08-2.32-1.37-3.64-.26-1.17-1.76-4.11-1.91-5.2-.54-3.86-.42-7.9-.81-11.89-.14-1.38-.94-3.25.16-4.13-.42-2.74,1.78-5.27.31-8.05,2.17,0,1.15-2.77,1.47-3.79.11-.34.62-.36.7-.53.29-.58,1.73-4.12,1.77-4.35.03-.16-.06-1.95.04-2.02.14-.11.65-.04.96-.3,1.06-.92,1.44-3.46,1.26-4.82l.84.84c.77-1.52,1.5-3.45,2.64-4.7.81-.88.76-.73,1.6-1.92,1.44-2.05,4.05-4.76,5.92-6.51.84-.78,2.32-1.01,2.28-2.39l.55.28c-.15-1.59,2.63-1.77,3.58-2.35.34-.21,1.78-1.89,2.15-2.07,4.6-2.27,11.41-5.48,16.23-6.52,1.7-.37,4.21-.07,6.39-.65,1.02-.27,1.7-1.6,2.18-.02Z"/>
      <path d="M68.07,30.77v9.03h-6.35c-.55,0-1.83,1.29-1.83,1.83v5.79h8.19l-.85,9.6h-7.34v23.43h-11.01v-23.43h-5.08v-9.6h5.08v-7.76c0-3.4,4.5-8.89,8.05-8.89h11.15Z"/>
    </g>
  </g>
</svg>