<?xml version="1.0" encoding="UTF-8"?>
<svg id="Calque_2" data-name="Calque 2" xmlns="http://www.w3.org/2000/svg" viewBox="0 0 383.23 344.68">
  <defs>
    <style>
      .cls-1 {
        fill: #131111;
      }

      .cls-2 {
        fill: #c93128;
      }
    </style>
  </defs>
  <g id="Backgrounds">
    <g>
      <path class="cls-1" d="M381.59,325.84c4.65,11.4-2.95,18.78-14.25,18.58l-359.21-1.01c-22.48-14.38,9.2-31.01,19.69-42.26,23.17-24.87,43.41-53.24,58.32-83.85-3.96-12.22-12.95-22.53-17.74-34.96C38.46,104.6,88.22,11.43,172.38,1.34c99.14-11.9,175.88,75.57,147.56,172.25-5.17,17.65-14.93,29.41-22.72,45.4,21,41.41,50.6,75.43,84.37,106.85ZM45.28,319.64h292.13c-6.69-11.55-17.37-20.33-25.54-31.04-18.39-24.1-34.88-52.07-46.52-80.07-22.72,14.07-43.44-1.7-64.86-2.11-26.41-.5-57.33,13.86-85.09,6.43-15.04,40.17-42.87,74.23-70.12,106.79ZM297.34,163.33C319.85,76.18,238.84.75,153.78,32.12c-63.84,23.54-87.36,99.35-54.99,157.89l10.3-21.55c3.24-9.04,14.09-53.38,16.95-56.06,8.55-8.01,22.16,4.05,28.5,2.59,6.27-1.44,13.69-13.75,23.47-13.59,7.76.13,28.3,17.18,43.4,18.6,13.7,1.28,23.53-17.7,35.71-7.05,5.46,4.78,17.02,65.96,24.77,77.07,5.18,3.92,14.48-22.93,15.45-26.69ZM253.73,195.82c1.86-1.04,3.76-1.6,3.15-4.34l-16.19-48.77c-14.51,7.73-33.46-.62-48.38-6.11-4.22-1.55-10.9-7.6-14.35-7.56-6.42.08-18.91,19.68-32.76,9.79l-19.6,56.13c1.39,4.78,13.03,3.53,17.38,3.26,17.41-1.06,40.98-8.57,57.51-8.26,14.75.28,39.97,13.29,53.24,5.86Z"/>
      <path class="cls-2" d="M153.78,32.12C238.84.75,319.85,76.18,297.34,163.33c-.97,3.76-10.27,30.61-15.45,26.69-7.75-11.11-19.31-72.29-24.77-77.07-12.18-10.65-22.01,8.33-35.71,7.05-15.1-1.42-35.64-18.47-43.4-18.6-9.78-.16-17.2,12.15-23.47,13.59-6.34,1.46-19.95-10.6-28.5-2.59-2.86,2.68-13.71,47.02-16.95,56.06l-10.3,21.55c-32.37-58.54-8.85-134.35,54.99-157.89Z"/>
    </g>
  </g>
</svg>