<?xml version="1.0" encoding="UTF-8"?>
<svg id="Calque_2" data-name="Calque 2" xmlns="http://www.w3.org/2000/svg" viewBox="0 0 345.43 339.13">
  <defs>
    <style>
      .cls-1 {
        fill: #131111;
      }

      .cls-2 {
        fill: #c93128;
      }

      .cls-3 {
        fill: #161514;
      }
    </style>
  </defs>
  <g id="Backgrounds">
    <path class="cls-3" d="M126.39,94.73c1.15,9.79,7.85,20.06,5.78,31.22,13.63,2.98,27.67,16.46,29.42,30.72.83,6.75.8,50.47-1.01,54.59-5.12,11.6-21.15,2.56-28.62-1.81-2.04,20.56,1.87,44.32,22.15,53.65,10.87-21.99,33.57-26.28,56.56-24.13,3.48.33,5.69,1.6,8.23,3.79.28,1.65,1.81,3.33,1.85,3.7.98,10.3-2.65,23.69-6.65,33.12-1.13,2.66-5.61,6.82-5.71,8.53-.06,1.01,7.72,13.51,9.17,17.97,5.57,17.11,6.52,33.4-16.24,33.04-26.65-.42-48.1-14.32-54.83-40.61-32.86-1.5-65.57,6.11-92.28-17.81-7.82-7.01-22.18-28.66-22.18-38.88v-32.38c-6.95,3.65-20.03,11.86-27.28,5.06-5.81-5.44-5-41.19-4.14-50.36,1.76-18.85,12.12-34.22,31.21-38.17-4.58-48.18,50.09-75.84,86.05-42.16,2.97,2.78,5.02,7.77,8.53,10.9ZM128.24,274.21c-10.78-13.98-18.42-27.5-20.11-45.57-3.55-37.77,2.81-79.24-1.03-117.38-7.56-25.5-44.58-24.32-50.89,1.17,2.9,39.4-4.3,85.26-.13,123.86,1.25,11.54,8.27,23.73,17.9,30.21,1.97,1.33,15.21,7.71,16.34,7.71h37.93ZM32.03,183.55v-31.46c-11.76,6.57-6.23,22.08-7.39,33.3l7.39-1.84ZM131.94,152.09v31.46l7.39,1.84c-1.16-11.21,4.37-26.73-7.39-33.3ZM194.84,261.27c-27.39,1.98-36.18,37.72-10.88,50.67,7.38,3.78,15.26,5.85,8.78-5.08-6.4-10.81-21.76-3.9-20.24-20.64,1.22-13.4,24.11-5.7,22.34-24.95Z"/>
    <path class="cls-1" d="M126.39,94.73c-1.3-11.06.68-22.98,4.62-33.31,1.33-3.48,5.82-7.46,6.12-10.45.23-2.31-9.2-17.3-10.29-24.21-3.7-23.41,1.63-28.12,24.61-26.45,22.94,1.67,44.49,17.11,47.19,40.69,34.09,1.58,68.05-7.48,95.29,18.5,8.78,8.37,21.2,31.59,21.2,43.56v32.38c7.48-4.35,23.51-13.42,28.64-1.81,3.29,7.45,1.34,50.26-2.41,58.56-6.87,15.21-23.2,17.52-25.39,20.87-1.35,2.07-1.88,16.89-3.63,22.27-11.46,35.27-56.57,45.5-83.23,20.36-3.03-2.86-4.03-7.57-8.34-9.24-.04-.37-1.57-2.05-1.85-3.7-1.74-10.08-5.13-18.48-4-29.31-18.56-6.37-29.5-18.16-31.22-38.16-.68-7.9-1.25-38.67,2.9-43.48,8.46-9.8,19.51,1.8,28.62,3.64v-26.83c0-6.43-13.16-31.1-19.67-32.25-7.54,4.98-11.88,13.59-20.4,18.08-12.58,6.63-37.83,10.04-48.74.29ZM150.45,78.07c35.61-2.75,36.03-52.95,0-53.64-.54,14.28,24.71,15.22,24.08,26.65-.81,14.53-25.31,6.8-24.08,26.98ZM217.06,63.28c2.98,7.34,8.99,12.21,12.72,19.66,18.76,37.38-.11,102.61,8.45,143.27,5.79,27.52,46.91,26.72,52.72-1.15-2.98-38.64,4.41-84.22.12-122.01-2.16-19.09-22.18-39.78-41.64-39.78h-32.38ZM215.21,161.34l-7.39-1.84c.82,10.21-3.92,22.54,7.39,27.75v-25.9ZM313.27,161.34v25.9c11.25-3.02,9.31-18.61,9.24-27.75l-9.24,1.84Z"/>
    <path class="cls-2" d="M217.06,63.28h32.38c19.46,0,39.47,20.68,41.64,39.78,4.28,37.78-3.1,83.37-.12,122.01-5.81,27.87-46.92,28.66-52.72,1.15-8.56-40.66,10.31-105.89-8.45-143.27-3.74-7.45-9.75-12.32-12.72-19.66Z"/>
    <path class="cls-2" d="M150.45,78.07c-1.23-20.19,23.27-12.45,24.08-26.98.63-11.43-24.62-12.37-24.08-26.65,36.03.69,35.61,50.89,0,53.64Z"/>
  </g>
</svg>