<?xml version="1.0" encoding="UTF-8"?>
<svg id="Calque_2" data-name="Calque 2" xmlns="http://www.w3.org/2000/svg" viewBox="0 0 345.92 336.66">
  <defs>
    <style>
      .cls-1 {
        fill: #131313;
      }

      .cls-2 {
        fill: #c93128;
      }
    </style>
  </defs>
  <g id="Backgrounds">
    <path class="cls-1" d="M295.6,296.77v27.09c0,8.84-10.61,11.56-17.67,12.22-10.05.93-54.21,1.22-60.69-2.97-1.56-1.01-5.7-6.21-5.7-7.37v-28.96h-110.22v30.82c0,.68-6.37,6.35-7.95,6.99-5.81,2.36-54.06,2.57-62,1.31-18.68-2.97-10.7-25.61-12.24-39.13-5.69.75-16.38-.39-18.33-6.89-1.3-4.34-.93-47.46.62-50.97,3.79-8.59,16.79-4.74,17.71-5.64,1.12-8.37-2.78-21.66,2.62-28.2,5.66-6.85,52.87-14.18,63.61-14.85,36.09-2.27,80.05,1.96,90.89,42.83l20.34.22V28.69c0-13.29,18.48-25.71,30.82-27.09,17.9-2.01,75.99-2.39,92.97.45,11.15,1.87,20.63,9.79,24.41,20.43l1.14,230.27c-1.37,8.86-11.05,18.66-19.07,22.03-3.35,1.41-10.36,1.04-11.77,3.17-1.52,2.3-.27,6.99-1.2,10.01-2.11,6.82-11.53,10.44-18.28,8.81ZM321.75,72.59V30.56c0-3.34-7.4-4.51-10.16-4.78-18.08-1.81-62.67-2.01-80.48.07-4.2.49-7.39,1.39-10.24,4.71v43.9c10.28-15.48,25.53-22.18,39.14-32.79,4.59-3.57,2.93-7.65,10.31-8.48,12.38-1.39,8.63,4.87,12.69,9.02,1.65,1.69,14.51,8.18,19.06,11.76,7.56,5.96,12.8,12.25,19.69,18.6ZM220.87,125.83v107.42h83.13c5.65,0,12.56,12.93,10.28,18.69l5.7-.84,1.81-125.32c-6.33-22.12-19.97-44.17-39.26-56.93,4.36,30.38-24.09,30.39-21.49.01-15.53,10.34-37.32,38.62-40.18,56.97ZM149.88,233.25c-2.7-8.51-12.88-13.09-20.92-15.51-26.99-8.12-58.39-.6-85.37,4.48l-.19,11.03h106.48ZM290,257.54H22.85v14.95h267.15v-14.95ZM235.82,311.72h35.49v-14.95c-11.99,1.02-23.53-3.11-35.5-1.87v16.82ZM77.03,296.77h-33.63v14.95h33.63v-14.95Z"/>
    <rect class="cls-2" x="22.85" y="257.54" width="267.15" height="14.95"/>
  </g>
</svg>