<?xml version="1.0" encoding="UTF-8"?>
<svg id="Calque_2" data-name="Calque 2" xmlns="http://www.w3.org/2000/svg" viewBox="0 0 374.66 369.14">
  <defs>
    <style>
      .cls-1 {
        fill: #c33134;
      }

      .cls-2 {
        fill: #16100d;
      }

      .cls-3 {
        fill: #c93128;
      }
    </style>
  </defs>
  <g id="Backgrounds">
    <path class="cls-2" d="M323.95,125.53v30.34h31.35c.49,0,6.56,3.99,7.23,4.91,3.13,4.32,3.03,53.56,0,58.44-.65,1.05-4.41,3.4-5.2,3.4h-33.38v136.54c0,11.96-48.73,10.59-57.22,8.67-3.33-.75-9.53-5.66-9.53-8.67v-136.54H117.62v136.54c0,5.5-10.42,8.81-15.04,9.24-9.39.87-51.71,3.07-51.71-9.24v-136.54H17.49c-12.75,0-10.96-51.92-5.9-60.52.78-1.32,5.4-6.23,5.9-6.23h33.38v-30.34h-29.33c-9.36-9.64-3.2-25.02-5.33-37.15-2.2-6.43-19.07-.28-15.78-22.39C1.26,60.37,20.74,11.87,24.1,6.73,27.05,2.22,30.05.12,35.71,0c81.05,29.19,169.49,34.87,253.5,14.93,11.73-2.79,46.86-16.67,55.07-13.97,1.94.64,3.48,1.82,4.85,3.3,3.64,3.93,25.09,59.33,25.47,65.69,1.07,17.5-13.91,12.33-16,18.42-2.13,12.13,4.03,27.51-5.33,37.15h-29.33ZM346.2,64.82l-15.11-36.12c-92.28,31.55-194.99,31.51-287.37.19l-15.14,34.9c102.21,34.85,214.95,32.62,317.63,1.03ZM50.87,105.29c1.97-10.16-5.88-11.64-14.16-12.12l-.02,12.14,14.18-.02ZM336.07,93.17c-7.95,1.01-13.89,2.91-12.13,12.12l12.16.02-.02-12.14ZM91.32,105.3l-16.18-2.02v52.59h16.18v-50.57ZM297.65,103.28l-16.18,2.02v50.57h16.18v-52.59ZM154.03,113.39l-36.41-4.05v46.53h36.41v-42.48ZM257.2,155.87v-46.53l-36.41,4.05v42.48h36.41ZM194.49,119.46h-16.18v36.41h16.18v-36.41ZM340.13,182.17H34.68v16.18h305.45v-16.18ZM91.32,222.62h-16.18v119.35h16.18v-119.35ZM297.65,222.62h-16.18v119.35h16.18v-119.35Z"/>
    <path class="cls-3" d="M346.2,64.82c-102.68,31.6-215.41,33.82-317.63-1.03l15.14-34.9c92.38,31.31,195.09,31.36,287.37-.19l15.11,36.12Z"/>
    <rect class="cls-1" x="34.68" y="182.17" width="305.45" height="16.18"/>
  </g>
</svg>