<?xml version="1.0" encoding="UTF-8"?>
<svg id="Calque_2" data-name="Calque 2" xmlns="http://www.w3.org/2000/svg" viewBox="0 0 325.41 323.14">
  <defs>
    <style>
      .cls-1 {
        fill: #100f10;
      }

      .cls-2 {
        fill: #c93128;
      }
    </style>
  </defs>
  <g id="Backgrounds">
    <path class="cls-1" d="M188.87,103.75c-9.67-1.6-21.06-11.88-24.47-21.06-12.63-33.97,26.62-72.77,61.06-63.38,14.37-23.09,49.55-26.87,65.56-3.7,2.25,3.25,4.07,10.44,6.02,12.37,7.09,7.04,17.5,5.13,24.36,20.3,15.32,33.89-15.84,61.95-49.35,55.46.37,14.88-4.45,30.51-11.95,43.21-15.83,26.8-56.53,40.09-50.3,77.74,1.04,6.29,7.97,23.9,14.46,25.8,13.13,2.64,85.47-3.17,91.17,2.53,8.02,30.19.77,64.83-35.42,67.95-78.49,6.75-167.02-4.8-246.54-.52-13.33-1.46-28.73-14.52-32.03-27.52-1.73-6.8-3.57-42.08,5.3-42.08h60.42c-3.33-9.28,4.56-28.65,3.15-35.5-.64-3.12-8.38-11.55-10.48-15.84-8.58-17.59-9.8-39.87-6.68-58.99-25.92.89-41.38-27.54-25.13-48.57,3.88-5.02,11.8-7.18,14.11-9.74,1.61-1.78,3.03-7.91,6.37-11.13,9.76-9.41,26.66-10.53,37.8-3.13,2.65,1.76,4.98,5.87,7.15,6.86,4.81,2.19,12.45.22,18.93,2.08,36.09,10.38,37.07,71.31-8.46,63.61-1.56,6.53,2.28,18.37,9.93,18.97,1.61.13,17.31-9.51,21.64-11.05,28.53-10.15,73.42-8.13,84.02-44.7-9.4-1.09-21.69,1.49-30.65,0ZM255.81,21.78c-12.99,2.89-12.23,24.15-24.49,22.13-8.33-1.37-11.82-4.68-23.03-3.05-21.65,3.14-35.55,39.24-12.45,41.92,20.2,2.34,66.96,1.85,87.68.03,14.97-1.31,25.95-11.65,17.35-26.26-6.08-10.33-15.04-4.75-21-10.52-6.08-5.89-1.19-15.55-11.4-21.87-4.36-2.7-7.48-3.53-12.66-2.38ZM75.51,86.65c-1.05-1.08-4.34-2.09-5.88-2.13-9.38-.25-6.47,9.61-11.17,14.91-4.81,5.43-15.99,2.75-15.77,12.26.14,5.91,8.44,7.5,13,7.91,7.48.67,60.33.56,62.1-2,1.13-10.59-7.32-21.12-18.24-21.02-6.85.06-9.13,4.78-15.81,2.08-8.09-3.27-5.19-8.86-8.23-12ZM89.92,250.86h106.83c-16.24-27.57-9.9-58.18,10.56-81.38,7.5-8.51,17.21-13.47,24.52-21.01,11.41-11.76,17.48-27.73,19.24-43.81l-9.52-1c-3.43,30.17-32.33,48.45-59.23,56.6-30.06,9.1-45.29,4.83-70.55,29.28-17.54,16.98-24.32,36.85-21.85,61.34ZM81.16,140.52c-10.11-2.64-7.69,21.66-7.06,28.97.23,2.61,4.93,26.26,8.79,23.58l12.15-18.13c-9.51-9.45-13.13-21.23-13.88-34.41ZM296.58,271.87H21.62c-2.01,16.86,3.14,25.78,20.33,27.83,74.61-3.83,155.41,5.76,229.3.27,19.38-1.44,27.72-7.19,25.32-28.1Z"/>
    <path class="cls-2" d="M300.86,56.55c8.6,14.61-2.37,24.94-17.35,26.25-20.71,1.82-67.47,2.31-87.67-.03-23.1-2.67-9.2-38.77,12.45-41.91,11.21-1.63,14.7,1.67,23.03,3.04,12.26,2.03,11.5-19.24,24.49-22.12,5.18-1.15,8.3-.32,12.66,2.37,10.2,6.32,5.32,15.99,11.39,21.88,5.96,5.77,14.92.18,21,10.52Z"/>
    <path class="cls-2" d="M99.55,96.57c10.92-.1,19.37,10.43,18.24,21.02-1.77,2.56-54.62,2.68-62.1,2-4.56-.41-12.87-1.99-13.01-7.9-.22-9.51,10.96-6.84,15.78-12.26,4.7-5.3,1.79-15.17,11.17-14.91,1.54.04,4.83,1.05,5.88,2.13,3.04,3.14.13,8.73,8.23,12,6.68,2.7,8.96-2.02,15.81-2.08Z"/>
  </g>
</svg>