<?xml version="1.0" encoding="UTF-8"?>
<svg id="Calque_2" data-name="Calque 2" xmlns="http://www.w3.org/2000/svg" viewBox="0 0 318.67 358.5">
  <defs>
    <style>
      .cls-1 {
        fill: #fcfcfc;
      }

      .cls-2 {
        fill: #181819;
      }

      .cls-3 {
        fill: #131111;
      }

      .cls-4 {
        fill: #c93128;
      }

      .cls-5 {
        fill: #1a1b1b;
      }
    </style>
  </defs>
  <g id="Backgrounds">
    <path class="cls-3" d="M245.98,113.39c25.32-16.91,68.38-5.13,71.29,27.83,1.81,20.45,2.12,66.31-.58,86.19-3.18,23.45-18.18,38.46-38.58,48.02-3.59,1.68-10.15,1.83-12.43,3.95-1.86,1.74-6.63,12.99-9.3,16.67-20,27.65-48.42,50.15-82.32,58.17-127.84,30.27-232.88-106.88-136.6-209.04-2.87-8.77-6.16-17.72-7.02-27.02-1.99-21.5-2.31-67.29-.04-88.51C32.14,13.57,47.68-.44,63.93.01c12.74.35,30.18,13.02,41.28,14.22,7.31.79,23.85-5,33.99-4.92,9.59.08,23.02,5.2,30.78,5.03,10.83-.23,30.46-14.66,44.06-14.32,11.3.28,31.94,14.01,31.94,25.81v87.57ZM74.69,26.79c-20.82-6.36-22.44,2.28-21.14,21.16,5.48-5.11,12.78-10.57,17.91-15.75,1.68-1.7,4.21-1.65,3.23-5.41ZM222.87,47.95c1.29-18.87-.32-27.51-21.14-21.16-.98,3.77,1.55,3.72,3.23,5.41,5.13,5.18,12.44,10.64,17.91,15.75ZM120.42,34.98c-38.32,5.19-71.79,43.12-66.4,82.73,7.09,52.04,67.67,76.37,114.09,61.19,93.53-30.57,60.25-158.53-47.69-143.92ZM230.59,189.41c1.49-8.65-1.09-20.71,0-29.83l-24.39,24.69c-11.75,8.25-24.56,15.8-39.13,17.66,13.54,55.97-71.74,57.3-57.72,0-23.53-3.22-41.4-18.89-57.73-34.65-2.39,21.05,7.04,43.46,26.31,53.55,7.56,3.96,15.88,4.55,23.15,7.65,28.81,12.29,34.12,52.69,5.72,68.1-21.85,11.85-39.95,2.41-60.93-5.18,40.1,51.61,119.77,57.79,169.35,15.44,4.57-3.9,21.12-20.65,23.06-25.07,1.8-4.1-6.91-2.78-10.38-4.98-8.13-5.15-6.28-19.07,3.71-20.93,7.73-1.44,18.49.76,26.87-.07,14.97-1.48,28.55-9.7,33.15-24.59,4.17-13.47,4.33-70.64,2.52-86.1-2.92-24.92-50.29-15.71-40.26,1.68,6.55,11.36,22.41,3.09,28.78,13.63,10.56,17.46-17.82,19.18-28.98,14.58,2.62,13.52-5.6,43.47-23.65,38.09-17.48-5.21.13-21.23.55-23.67ZM32.37,203.86c-7.54,26.75-5.18,48.72,19.81,63.87,10.07,6.1,39.24,18.44,47.67,6.51,8.11-25.54-7.89-22.41-23.21-29.04-11.52-4.98-22.34-11.74-30.77-21.2l-13.5-20.15ZM135.73,206.04c-6.39,1.77-9.14,14.71,1.5,15.29,15.02.83,9.4-18.31-1.5-15.29Z"/>
    <path class="cls-1" d="M89.53,90.7c-5.67,1.3-11.26,7.93-13.98,12.89,4.86,19.96,15.97,4.45,21.37,3.9,5.64-.58,12.49,11.73,21.12,4,9.34-17.32-14.84-23.92-28.5-20.79ZM170.4,90.74c-17.9,3.69-19.67,25.76-2.43,22.66,4.7-.84,6.09-6.46,11.53-5.91,5.88.6,16.21,16.22,21.82-4.39-5.06-11.87-18.86-14.85-30.92-12.37ZM155.04,124.47c10.2-9.44-23.89-19.48-32.39-8.37-7.98,10.42,5.89,8.85,7.56,13.96,1.21,3.7,1.28,27.59-2.58,27.55l-4.71-8.72c-14.18-5.85-15.1,11.12-6.88,18.42,8.22,7.31,14.7,2.14,22.93,2.06,2.81-.03,6.26,1.91,9.85,1.92,12.37.05,20.37-10.93,14.55-22.44l-9.86.03-4.71,8.72c-3.85.03-3.8-23.89-2.59-27.56,1.35-4.08,6.58-3.51,8.83-5.59Z"/>
    <path class="cls-4" d="M135.73,206.04c10.9-3.01,16.52,16.12,1.5,15.29-10.64-.59-7.89-13.53-1.5-15.29Z"/>
    <path class="cls-2" d="M155.04,124.47c-2.24,2.08-7.48,1.51-8.83,5.59-1.21,3.67-1.26,27.59,2.59,27.56l4.71-8.72,9.86-.03c5.82,11.51-2.17,22.49-14.55,22.44-3.59-.02-7.04-1.95-9.85-1.92-8.23.08-14.71,5.24-22.93-2.06-8.22-7.3-7.29-24.27,6.88-18.42l4.71,8.72c3.86.03,3.79-23.86,2.58-27.55-1.67-5.11-15.53-3.54-7.56-13.96,8.51-11.11,42.59-1.07,32.39,8.37Z"/>
    <path class="cls-5" d="M170.4,90.74c12.06-2.49,25.85.5,30.92,12.37-5.6,20.6-15.94,4.99-21.82,4.39-5.44-.56-6.82,5.07-11.53,5.91-17.24,3.09-15.47-18.97,2.43-22.66Z"/>
    <path class="cls-5" d="M89.53,90.7c13.66-3.12,37.84,3.47,28.5,20.79-8.63,7.72-15.48-4.58-21.12-4-5.4.55-16.51,16.06-21.37-3.9,2.72-4.96,8.31-11.59,13.98-12.89Z"/>
    <path class="cls-4" d="M87.79,127.31c18.67-2.46,20.86,25.49,5.27,28.47-20.52,3.92-25.21-25.83-5.27-28.47Z"/>
    <path class="cls-4" d="M198.85,149.4c-9.76,13.27-32.71-3.34-19.78-18.85,12.22-14.66,29.43,5.72,19.78,18.85Z"/>
  </g>
</svg>