<?xml version="1.0" encoding="UTF-8"?>
<svg id="Calque_2" data-name="Calque 2" xmlns="http://www.w3.org/2000/svg" viewBox="0 0 397.61 355.53">
  <defs>
    <style>
      .cls-1 {
        fill: #131313;
      }

      .cls-2 {
        fill: #c6373c;
      }

      .cls-3 {
        fill: #c93128;
      }
    </style>
  </defs>
  <g id="Backgrounds">
    <path class="cls-1" d="M334.93,349.94c-1.84,6.59-14.74,5.67-20.31,5.31-35.38-2.28-81.96-19.39-115.65-19.39-32.75,0-79.1,16.33-113.75,19.15-17.85,1.45-22.69,1.14-24.44-17.83-6.14-66.53,4.8-142.34.04-209.87-1.18-6.16-10.06-11-13.79-16.19-2.41-3.35-3.17-10.34-5.35-11.78-2.29-1.51-14.59-1.98-19.85-3.69-30.26-9.78-29.38-55.69,4.65-64.88,4.68-1.27,12.31,0,15.22-1.9,1.35-.89,5.83-14.35,10.81-19.16,3.49-3.37,13.31-8.95,18.13-9.71l258.45.35c6.31,1.28,15.97,9.3,19.82,14.44,2.88,3.85,6.27,13.38,7.34,14.07,2.58,1.69,11.77,1.02,16.85,2.42,30.61,8.43,32.43,50.5,6.19,63.24-6.61,3.21-19.88,2.77-23,4.84-1.09.72-5.58,11.39-8.56,15-2.75,3.34-12.79,9.92-12.79,10.76v224.82ZM69.94,28.2c-4.08,4.11-4.08,63.46-.64,69.21.99,1.66,4.05,4.23,5.94,4.77l243.75.56c4.43.2,10.03-3.93,11.21-8.06,1.5-5.23,1.57-53.16.4-59.44-.79-4.23-4.08-7.44-7.89-9.24l-252.76,2.2ZM41.61,55.52c-11.27-2.02-20.66,2.9-14.47,14.48l14.46,2.67v-17.15ZM371.02,70.22c.7-3.64,1.32-11.65-1.69-13.75l-13-.94v17.15s14.69-2.45,14.69-2.45ZM311.38,128.33H86.56v199.12l112.41-17.33,112.41,17.33v-199.12Z"/>
    <path class="cls-2" d="M250.85,158.8c54.18-11.17,58.74,68.28,8.05,66.02-39.92-1.78-40.71-59.29-8.05-66.02ZM257.07,184.26c-9.09,3.03-1.71,21.68,9.49,13.8,5.5-3.87,2.59-17.82-9.49-13.8Z"/>
    <path class="cls-3" d="M113.79,178.03c6.95-1.53,41.33-1.46,47.82.51,11.64,3.53,12.21,22.55.91,24.67-5.14.96-49.47.93-53.12-.29-8.11-2.72-9.24-21.89,4.39-24.88Z"/>
    <path class="cls-3" d="M111.64,261.53c4.66-1.34,45.83-1.34,50.48,0,9.4,2.7,11.24,18.14,2.73,23.23-4.62,2.76-46.99,3.34-53.21,1.56-10.81-3.09-10.83-21.68,0-24.79Z"/>
    <path class="cls-3" d="M167.42,223.05c6.42,6.45,3.11,20.26-7.44,22.59-7.03,1.55-36.97,1.55-44.38.33-15.86-2.6-15.8-22.8-3.99-25.05,7.54-1.43,51.9-1.8,55.81,2.13Z"/>
  </g>
</svg>