<?xml version="1.0" encoding="UTF-8"?>
<svg id="Calque_2" data-name="Calque 2" xmlns="http://www.w3.org/2000/svg" viewBox="0 0 350.25 348.9">
  <defs>
    <style>
      .cls-1 {
        fill: #100f10;
      }

      .cls-2 {
        fill: #16100d;
      }

      .cls-3 {
        fill: #c93128;
      }
    </style>
  </defs>
  <g id="Backgrounds">
    <path class="cls-1" d="M225,165.34h27.39c1.15,0,7.9,7.52,6.71,10.29-4.54,50.08,5.72,109.94-.06,158.83-1.15,9.75-4.88,11.48-14.12,12.33-73.15,6.72-156.43-5.28-230.66,0-5.62.18-12.82-2.26-14.04-8.63L.07,22.59c-.52-5.03,1.83-8.53,5.83-11.17l206.92-1.08c5.15-1.14,12.18,8.77,12.18,12.38v142.64ZM200.44,34.99H22.86v287.16h115.24v-150.19c0-.47,6.14-6.61,6.61-6.61h55.73V34.99ZM234.45,188.01h-73.68v54.79h73.68v-54.79ZM234.45,267.36h-73.68v54.79h73.68v-54.79Z"/>
    <path class="cls-1" d="M315.12,3.46c4.89,4.46,21.98,34.21,25.47,41.58,6.61,13.97,11.93,27.41,8.68,43.36-1.47,7.2-12.41,18.73-12.6,22.99-.12,2.57,1.78,6.05,1.78,9.48.13,70.57-.33,141.14-.05,211.71-.13,6.26-4.6,12.33-10.84,13.72-6.69,1.49-31.91,1.32-39.31.45-6.3-.74-12.26-4-14.08-10.48-.32-71.8.31-143.61-.15-215.41-.02-3.69,1.93-8.91,1.54-11.02-.32-1.7-8.03-10.12-9.94-14.39-9.84-22.1,1.36-42.17,11.96-61.73,6.11-11.27,22.02-44.42,37.54-30.26ZM308.1,35c-3.37-2.34-12.46,15.36-14.17,18.84-5.91,12-13.84,26.68-1.89,37.86,12.95,12.11,34.13,3.1,34.88-14.37.48-11.18-15.33-31.11-18.82-42.33ZM313.8,129.45h-15.11v192.7h15.11v-192.7Z"/>
    <path class="cls-3" d="M200.44,34.99v130.36h-55.73c-.47,0-6.61,6.14-6.61,6.61v150.19H22.86V34.99h177.59ZM117.32,78.44c4.04-25.68-19.17-25.63-15.11,0h-34.95c-4.97,0-4.97,15.11,0,15.11h34.95c1.87,17.39-13.85,32.8-27.33,41.62-4.7,3.08-12.78,2.32-11.85,10.01,2.25,18.58,33.07-5.45,39.18-11.96v33.06c0,8.3,15.11,6.3,15.11,1.89v-36.84c4.49,5.8,38.1,33.51,39.57,14.21.53-7.01-14.78-12.6-20.52-17.2-10.45-8.38-21.61-20.32-19.05-34.79h34.95c6.37,0,4.34-15.11,0-15.11h-34.95Z"/>
    <path class="cls-3" d="M308.1,35c3.49,11.22,19.3,31.15,18.82,42.33-.75,17.47-21.93,26.48-34.88,14.37-11.95-11.18-4.02-25.86,1.89-37.86,1.71-3.48,10.8-21.18,14.17-18.84Z"/>
    <path class="cls-2" d="M117.32,78.44h34.95c4.34,0,6.37,15.11,0,15.11h-34.95c-2.56,14.47,8.6,26.42,19.05,34.79,5.74,4.6,21.05,10.2,20.52,17.2-1.47,19.3-35.08-8.41-39.57-14.21v36.84c0,4.41-15.11,6.41-15.11-1.89v-33.06c-6.11,6.51-36.93,30.54-39.18,11.96-.93-7.69,7.15-6.94,11.85-10.01,13.48-8.82,29.2-24.23,27.33-41.62h-34.95c-4.97,0-4.97-15.11,0-15.11h34.95c-4.05-25.63,19.16-25.68,15.11,0Z"/>
  </g>
</svg>