<?xml version="1.0" encoding="UTF-8"?>
<svg id="Calque_2" xmlns="http://www.w3.org/2000/svg" viewBox="0 0 356.61 244">
  <g id="Calque_1-2" data-name="Calque_1">
    <g>
      <path d="M71.54,86.41c-2.54,4.88-5.61,5.12-8.85,1.07-9.93-12.42-14.24-27-16.18-42.43-.77-6.13-.97-12.34-1.23-18.52-.39-9.22-7.49-17.14-16.06-17.7-10.76-.7-19.54,5.44-20.32,15.5-.65,8.29-.04,16.74.65,25.06,1.14,13.82,4.39,27.22,9.59,40.1,3.9,9.64,8.71,18.76,15.32,26.93,7.96,9.84,16.76,18.63,27.88,24.86,2.74,1.54,3.4,3.84,3.4,6.77-.05,27.7-.03,55.4-.03,83.09,0,4.28,0,4.31,4.32,4.31,15.7.01,31.4,0,47.1,0,1,0,2,0,3,.05,2.11.12,3.67,1.39,3.55,3.32-.09,1.52-1.11,3.41-2.33,4.32-1.11.84-3.04.8-4.61.8-17.6.05-35.2.04-52.8.02-5.55,0-6.74-1.2-6.74-6.65,0-27.7-.14-55.4.13-83.09.04-4.53-1.48-7.16-5.06-9.35-9.65-5.9-17.62-13.83-24.47-22.6-7.19-9.21-12.85-19.51-17.01-30.55C4.23,74.36.52,56.45.17,37.88c-.09-4.58-.36-9.19.03-13.73C1.13,13.22,9.1,3.94,19.59,1.05c10.82-2.97,21.7.75,28.57,9.61,3.83,4.94,5.64,10.39,5.67,16.66.05,11.95,1.52,23.75,5.16,35.16,2.31,7.25,5.55,14.09,10.83,20.3-5.1-31.13,4.91-54.55,34.51-66.55,20.82-8.44,39.8-2.25,56.5,11.88,18.85,22.28,21.55,46.03,6.49,71.27,5.02,2,10,3.98,15.48,6.16-.16-4.1,3.07-4.9,6.31-5.72-11.47-19.09-13.67-38.75-3.03-58.47,15.83-29.32,52.88-37.81,80.04-17.55,21.75,16.22,27.51,46.16,15.69,69.15-4.41,8.58-10.64,15.12-18.4,20.44-7.93,5.44-16.76,8.26-26.36,8.95-14.51,1.04-27.2-3.52-38.25-12.6-3.82-3.14-6.97-1.07-10.61-.6,3.17,3.78,6.29,7.12,8.98,10.77,5.58,7.55,8.25,16.23,8.29,25.54.13,30.8.07,61.59.05,92.39,0,4.2-1.61,5.99-5.67,6.1-5.1.14-10.2.04-15.3,0-.79,0-1.59-.19-2.36-.38-2.51-.6-3.32-2.47-3.18-4.76.14-2.35,1.92-3.2,3.95-3.27,3.7-.13,7.4-.14,11.1-.04,2.22.06,2.98-.85,2.98-3.02-.04-29.2.26-58.4-.18-87.59-.18-11.67-5.33-21.36-14.86-28.81-5.77-4.52-12.05-6.84-19.02-8.09-2.46-.44-4.24.54-5.98,2.01-7.6,6.4-16.29,10.43-26.13,11.84-15.5,2.23-29.54-1.21-41.74-11.23-3.22-2.64-6.72-5.16-9.18-8.42-2.88-3.82-4.78-8.39-7.06-12.65-.47-.87-.79-1.83-1.33-3.12ZM122.56,113.78c24.06.66,45.7-19.69,45.69-45.7,0-26.02-20.05-46.39-45.44-46.74-24.57-.34-45.7,21.13-45.91,46.05-.21,24.9,21.15,47.26,45.67,46.39ZM233.8,113.78c24.89.47,45.44-20.85,45.51-45.92.06-25.66-20.81-46.64-45.74-46.49-25.01.14-45.52,20.84-45.64,46.55-.12,24.31,21.37,46.97,45.87,45.86Z"/>
      <path d="M290.63,189.65c0-13.7.09-27.4-.06-41.1-.04-3.71,1.17-6.1,4.46-8.02,13.64-7.97,24.37-19.03,32.69-32.36,10.59-16.96,16.36-35.65,18.65-55.41.92-7.92,1.42-15.91,1.71-23.89.32-8.92-4.12-15.42-11.69-18.84-7.2-3.25-15.56-1.07-21.02,5.01-2.86,3.18-3.96,6.99-4.33,11.22-.82,9.44-1.44,18.93-3.01,28.25-1.84,10.93-6.04,21.12-12.42,30.3-2.69,3.88-5.07,4.78-7.53,2.97-2.25-1.65-2.02-4.1.52-7.89,7.41-11.08,11.31-23.44,12.75-36.57.73-6.64.62-13.37,1.34-20.01,1.27-11.71,11.74-21.53,23.14-23.08,15-2.04,30.76,9.54,30.78,27.22.03,26.69-4,52.65-16.73,76.53-3.88,7.27-8.77,14.07-13.71,20.7-6.5,8.71-14.82,15.6-23.98,21.4-2.35,1.49-3.09,3.21-3.09,5.88.09,28.9.06,57.79.13,86.69,0,2.5-1.11,4.02-3.29,4.76-1.2.41-2.54.53-3.82.53-16.2.03-32.4.03-48.6,0-1.09,0-2.21-.07-3.27-.32-2.36-.57-4.12-1.96-3.87-4.57.25-2.62,2.13-3.62,4.68-3.61,13.1.02,26.2,0,39.3,0,2.3,0,4.6-.02,6.9,0,2.37.01,3.46-.79,3.44-3.51-.14-14.1-.07-28.2-.07-42.3Z"/>
      <path d="M158.61,204.11c0-11.09-.02-22.17.03-33.26,0-1.26.02-2.8.7-3.72.78-1.05,2.35-2.2,3.48-2.11,1.31.11,2.82,1.3,3.66,2.44.67.92.63,2.48.63,3.75.03,22.07.03,44.14.01,66.22,0,.99,0,2.03-.25,2.97-.6,2.21-2.2,3.27-4.46,3.23-2.3-.03-3.41-1.43-3.65-3.58-.13-1.09-.14-2.19-.14-3.29,0-10.89,0-21.77,0-32.66Z"/>
    </g>
  </g>
</svg>