<?xml version="1.0" encoding="UTF-8"?>
<svg id="Calque_2" data-name="Calque 2" xmlns="http://www.w3.org/2000/svg" viewBox="0 0 109.68 107.21">
  <g id="Calque_1-2" data-name="Calque 1">
    <g>
      <path d="M51.37.81c1.12-.35,2.1-.28,3.19-.4.31-.04.61-.44,1.12-.41.67.04,1.89,1.31,1.87.01h.42s.18.5.18.5c.23.2,3.54-.03,4.06.04,1.01.12,1.7.61,3.09.59.95,0,.72-.7,1.44.52,1.28-.65,2.07.73,3.22,1.03,1.24.32,2.09.11,3.48.7,1.2.51,2.64.61,3.65,1.13.68.35,2.73,2.07,3.52,2.24,1.41.31,1.18-.54,2.06,1.3,1.86-.51,1.56.57,2.55,1.38,1.86,1.52,4.05,3.09,5.93,4.51,2.29,1.73,4.27,3.45,6.19,5.94,4.24,5.51,6.82,9.99,8.83,16.38.05.17.63.18.73.91.06.42-.21,1.04-.1,1.22.15.25.85.31.94.72.06.23-.25.67-.17,1.04.71,3.44,1.74,6.29,2.03,10.05.24,3-.13,6-.14,8.93,0,1.59-.38,4.2-.72,6-.38,1.99-1.46,4.03-1.74,5.93-.07.48.23,1.11.2,1.16-.07.09-.55.04-.75.51-.91,2.14-1.2,4.17-2.31,6.23-.89,1.66-1.17,2.2-1.77,3.82-.67,1.84-2.3,2.67-2.93,3.69-.87,1.4-1.66,3.27-2.82,4.68-.39.48-1.09.71-1.54,1.3-.48.63.1,1.26-1.4.99,0,.49.1.94-.15,1.41-.44.83-3.74,3.77-4.43,4.05-.58.24-1.26.06-1.73.23-.42.15-.38.76-.65.82-.15.03-2.78-.05-2.99-.08-.15-.02-1.97-.59-2.16-.67-1.2-.54-2.02-2.17-2.73-3.2-.21-.3-.82-.41-.87-.72-.03-.21.22-.62.14-1.07-.07-.39-.47-.68-.45-1.15,0-.22.94-3.2,1.06-3.37.22-.34.77-.24,1.15-.61.56-.55.37-1.31.64-1.77,1.05-1.75,4.78-3.43,6.31-4.99,2.39-2.42,3.71-4.5,5.42-7.47,1.6-2.78,3.53-5.96,4.16-9.07s1.31-8.03,1.21-11.17c-.03-.93-1.28-3.71-1.11-4.47.04-.2.56-.17.55-.29-.05-1.41-1-3.14-1.29-4.3s.52-2.12-.39-3.83c-1.29-2.4-2.34-5.12-3.87-7.5-2.1-3.27-5.02-6.95-8.08-9.86-.4-.38-1.3-1.41-1.43-1.51-.57-.43-2.07-.54-2.77-1.1-.44-.36-.64-1.24-.84-1.36-.55-.32-1.52-.1-2.67-1.01-.96-.76-2.01-1.38-3.14-1.87-.55-.24-2.18-.09-2.54-.35-.24-.17-.19-.92-.37-1.04-.2-.14-1.24,0-1.73-.1-1.73-.37-5.02-1.48-6.57-1.48-.35,0-1.64.52-2.21.42-.12-.02-1.5-.87-1.72-.89-.99-.08-5.28.12-6.17.32-.21.05-.17.51-.38.55-3.79.86-7.32.92-10.9,2.83-.29.16-1.42,1.25-1.76,1.41l-.81-.54c-1.33.47-2.24,2.12-2.77,2.33-1.46.56-2.54.03-2.19,2.45-1.52-.37-1.4.25-2.02.66-2.07,1.36-2.91,1.98-4.29,4.14-.1.16.09.51.07.53-.21.21-1.01.04-1.06.08-.17.15-.72,1.58-.92,1.97-.48.9-.37,1.01-.56,1.45-.39.88-1.25,1.03-1.69,1.44-.37.34-.57,2.15-1.28,2.95-.42.47-1.29.72-1.45.95-.3.45-.38,2.44-.59,3.22-1.05,3.9-2.6,7.8-2.84,11.79-.09,1.42.91,4.55-.32,5.39v.56c1.62.8.77,3.6,1.37,5.11.31.77,2.37,1.88.34,2.79.41,1.13,1.34.93,1.41.99.05.05-.27.96-.23,1.48.07.87.87,1.78,1.16,2.47.26.61.9,2.69,1.1,3.05.05.09,1.42,1,1.54,1.25s0,1.55.44,1.85c.27.19.9-.06,1.39.46.24.25.08,1.56.68,2.4.56.79,1.11.65,1.53,1.02.26.22.98,1.68,1.31,2.08.31.37,1.38,1.03,1.54,1.27.31.46.17,1.04.33,1.23.11.14,2.6,1.29,2.95,1.57.56.45,1.1,1.9,1.29,2.09.12.12,2.28,1.13,2.89,1.5,3.98,2.39,7.6,5.13,12.35,6.28,2.22.54,4.71.79,7.16,1.08.67.08,1.22.63,2.24.55.87-.07,1.17-.49,1.47-.54.35-.05.66.46,1.08.51,2.01.24,5.98-1.14,8.03-1.56,3.26-.66,5.62.36,4.75,4.18-.42,1.84-3.44,2.13-4.79,2.54-8.07,2.44-16.88,3.52-25.17,2.65-3.14-.33-6.29-1.35-9.16-2.42-1.19-.45-2.29-.27-3.22-.67-1.03-.44-2.19-1.68-3.61-1.62l.29-.56c-1.26-.23-3.08-.94-4.17-1.6-.26-.16-.33-.47-.56-.65-3.78-2.96-6.54-5-9.86-8.49-.43-.45-1.13-.28-1.18-.32-.27-.28-.31-1.48-.64-2.04-.49-.81-1.45-1.92-2.1-2.96-.51-.82-1.24-1.57-1.58-2.52l-.51.23c.3-.64-.56-.93-.56-1.02-.07-2.52-.09-1.56-1.4-3.44-.39-.56.14-1.22-1.17-1.34l.26-1.94c-1.2-.47-.81-1.38-.96-1.59-.13-.2-.59-.2-.66-.3-.06-.08.29-.6.24-.94-.45-3.26-2.17-7.18-2.82-10.47l.52-.26c.17-3.67-1.57-8.53-.27-11.3-.29-1.14.25-2.63.47-3.82.13-.72.43-1.18.44-1.26.08-.79-.02-2.27-.88-2.55.32-.51,1.15-.49,1.44-.91.37-.52.17-2.87.31-3.31.11-.34.62-.36.7-.53.72-1.51,1.27-3.77,1.59-5.1.46-1.89.35-.85,1.19-1.57,1.16-1,1.2-3.09,1.26-4.53l.84.56c.67-1.15,1.19-2.87,1.89-3.91.45-.68,1.35-.86,1.64-1.16.16-.17.81-1.54,1.28-2.2,1.08-1.54,4.02-4.84,5.48-6.18.67-.61,2.34-.7,2.16-2.06l.55.28c-.07-1.77,2.52-1.69,3.59-2.35.38-.23,1.71-1.83,2.16-2.07.58-.31,1.27-.25,1.86-.55.95-.47,1.28-.97,2.63-1.6,3.12-1.46,8.54-3.7,11.73-4.39,1.7-.37,4.21-.07,6.39-.65,1.02-.27,1.7-1.61,2.18-.02Z"/>
      <path d="M43.64,30.57c8.53.48,18.33-.91,26.71-.04,7.08.74,11.55,6.89,12.03,13.66.45,6.34.45,16.24,0,22.58-.51,7.18-4.77,12.48-12,13.69-8.5-.62-18.17.83-26.53,0-17-1.7-10.54-27.02-11.64-38.17.88-6,5.51-10.65,11.43-11.72ZM44.77,34.8c-4.55.82-7.84,4.27-8.37,8.85.43,7.54-.7,15.95-.03,23.39.42,4.74,4.06,8.77,8.88,9.19,7.65.67,16.25-.51,24-.01,4.53-.57,7.84-3.85,8.61-8.32-.63-7.9.84-17.1,0-24.85-.46-4.2-4.49-7.86-8.65-8.29-7.68-.8-16.64.47-24.45.04Z"/>
      <path d="M54.65,42.43c19.82-2.68,20.88,25.89,3.02,26.47-16.9.55-18.29-24.4-3.02-26.47ZM55.49,47.22c-8.76,1.4-8.8,15.14,0,16.52,13.33,2.09,13.15-18.62,0-16.52Z"/>
      <path d="M69.6,39.03c6.03-1.37,5.54,7.54-.21,5.74-2.2-.69-2.32-5.17.21-5.74Z"/>
    </g>
  </g>
</svg>