<?xml version="1.0" encoding="UTF-8"?>
<svg id="Calque_2" data-name="Calque 2" xmlns="http://www.w3.org/2000/svg" viewBox="0 0 392.71 600.43">
  <g id="Calque_1-2" data-name="Calque 1">
    <g>
      <path d="M203.84,540.66v54.98c0,3.02-8.32,6.78-10.91,3.43l-34.94-34.76-35.7,34.99c-3.43,3.12-11.14-.76-11.14-4.81v-53.83h-57.29c-2.13,0-8.73-1.95-11.1-2.72-24.51-7.98-41.13-29.99-42.76-55.69L.03,48.68C1.48,23.28,21.54,2.23,46.92,0h327.65c10.15,1.11,17.41,9.19,18.14,19.29v503.26c.03,7.12-9.31,18.11-16.43,18.11h-172.44ZM378.29,418.6V18.16c0-1.92-5.16-4.78-7.17-4.34-108.76.53-217.65-.95-326.33.75-14.78,2.07-30.37,18.44-30.37,33.53v391.8c11.29-11.98,25.67-19.9,42.32-21.3h321.55ZM378.29,472.72v-38.29c0-.1-.89-1.02-1.16-1.14l-319.85-.32c-58.29,6.82-56.05,90.35,3.46,93.9,16.44.98,33.86-.78,50.4-.02v-39.73h-28.5c-.76,0-4.03-2.6-4.58-3.48-1.57-2.52-1.21-6.8.82-8.91.53-.55,3.24-2,3.76-2h295.65ZM189.45,487.11h-63.91v88.67l27.61-27.37c2.98-2.24,7.1-1.9,9.82.59l26.47,26.21v-88.09ZM378.29,487.11h-174.45v39.73h168.98c1.27,0,5.47-2.95,5.47-4.32v-35.41Z"/>
      <path d="M190.48,117.65c46.58-3.22,89.27,33.09,91.69,80.12,1.27,24.71-19.62,55.82-30.06,78.22-2.51,5.39-8.73,17.47-9.55,22.69-2.89,18.44,3.8,40.62-3.32,58.87-14.4,36.91-67.06,38.79-84.27,3.11-9.54-19.79-1.3-43.19-4.94-63-1.11-6.07-8.35-19.86-11.34-26.09-17.82-37.2-40.26-62.99-19.41-105.94,13.19-27.17,40.95-45.89,71.19-47.99ZM215.93,290.21h14.11c7.66-19.43,18.47-37.38,27.27-56.22,7.7-16.49,12.95-26.83,9.03-45.71-9.1-43.75-56.71-68.36-98-50.75-29.54,12.6-51.18,48.06-39.92,79.85,8.78,24.8,25.48,47.72,33.98,72.82h14.39l-11.37-41.3c-2.07-8.47,8.08-13.13,13.02-6.11l13.38,47.36,9.19-.19,12.93-45.8c3.02-7.59,13.57-5.65,14.05,2.52l-12.05,43.53ZM228.02,304.6h-63.33v17.85h63.33v-17.85ZM228.02,336.27h-63.33c-2.31,27.03,26.37,46.17,49.7,30.41,6.04-4.08,13.64-14.62,13.64-22.06v-8.35Z"/>
      <path d="M265.3,71.56c4.88-.27,8.62,4.41,7.38,9.1l-11.92,31.26c-6.07,6.1-14.75,1.5-12.41-7.24,1.59-5.96,8.14-24.28,11.03-29.27,1.32-2.27,3.22-3.71,5.93-3.86Z"/>
      <path d="M126.56,71.53c2.63-.3,5.62,1.55,6.96,3.72,2.76,9.53,8.89,20.27,11.2,29.67,2.29,9.29-8.86,13.37-13.09,6.19-1.81-3.07-10.46-26.23-11.13-29.74-.88-4.58,1.03-9.27,6.06-9.84Z"/>
      <path d="M194.47,58.31c5.18-1.05,8.82,1.95,9.37,7.06.67,6.3.78,23.76-.05,29.89-1.22,9-13.35,9.03-14.36.64-.7-5.87-.82-26.58.05-32.22.38-2.49,2.5-4.87,4.99-5.37Z"/>
    </g>
  </g>
</svg>