<?xml version="1.0" encoding="UTF-8"?>
<svg id="Calque_2" data-name="Calque 2" xmlns="http://www.w3.org/2000/svg" viewBox="0 0 373.58 373.03">
  <defs>
    <style>
      .cls-1 {
        fill: #030304;
      }

      .cls-2 {
        fill: #040404;
      }
    </style>
  </defs>
  <g id="Calque_1-2" data-name="Calque 1">
    <path class="cls-1" d="M181.44.16l9.74-.16c143.67,3.78,230.5,162.58,153.94,285.44-70.8,113.61-235.8,117.4-311.86,7.23C-50.93,170.74,34.32,4.73,181.44.16ZM176.27,12.83C47.94,19.54-28.26,161.97,35.91,273.59c65.43,113.81,229.74,116.42,298.89,4.81C409.46,157.87,316.85,5.49,176.27,12.83Z"/>
    <path class="cls-2" d="M95.52,101.1l181.11-.16c15.92,1.06,27.64,12.45,28.87,28.41v114.6c-.93,13.58-10.2,24.63-23.47,27.71-63.26,1.12-126.95,1.13-190.2,0-12.43-2.53-21.94-12.8-23.44-25.38v-119.24c1.72-13.98,13.08-24.8,27.13-25.92ZM282.95,114.12l-7.72-1.44H98.17s-7.26,1.67-7.26,1.67c.01.79,2.14,2.65,2.82,3.29,27.75,26.29,59.25,49.93,87.11,76.28,6.19,4.58,9.25,2.03,14.32-2.09,29.6-24.1,57.19-51.88,86.86-76.06l.93-1.65ZM81.76,123.51l-1.66,5.37c.56,39.77-1.05,79.79.82,119.41l.84,1.49,71.62-63.14-71.62-63.14ZM292.33,123.5l-72.31,63.61,72.07,62.69,1.67-7.26v-112.25s-1.43-6.79-1.43-6.79ZM282.95,259.18l-72.53-63.85c-7.07,4.52-11.96,12.4-21.12,13.17-11.65.98-17.3-5.86-25.15-12.94l-1.73.13-71.5,63.27,7.26,1.67h177.05s7.72-1.44,7.72-1.44Z"/>
  </g>
</svg>