<?xml version="1.0" encoding="UTF-8"?>
<svg id="Calque_2" data-name="Calque 2" xmlns="http://www.w3.org/2000/svg" viewBox="0 0 324.89 324.22">
  <defs>
    <style>
      .cls-1 {
        fill: #030304;
      }
    </style>
  </defs>
  <g id="Calque_1-2" data-name="Calque 1">
    <path class="cls-1" d="M151.98.25c130.54-6.95,216.97,132.93,149.28,245.82-66.99,111.7-233.43,101.58-286.92-16.99C-32.04,126.27,39.44,6.24,151.98.25ZM151.98,10.88C47.61,16.9-18.97,128.35,23.69,223.97c50.07,112.24,207.56,121.2,269.48,14.86C354.76,133.08,273.26,3.89,151.98,10.88Z"/>
    <path class="cls-1" d="M98.38,69.13c4.43-.6,8.56.73,12.01,3.5l28.15,33.94c7.48,12.31-3.91,19.92-11.59,27.7-.55.62-.47,1.3-.32,2.05.42,2.07,4.37,8.36,5.7,10.49,11.06,17.66,31.66,38.31,50.07,48.17,1.91,1.02,5.87,3.6,7.75,2.5,5.14-4.36,10.24-12.83,17.41-13.63,6.03-.68,8.66.9,13.18,4.27,9.04,6.75,21.11,16.59,29.34,24.24,3.88,3.61,5.9,7.93,5.28,13.34-.45,3.88-8.62,19.05-11.1,22.93-9.21,14.41-29.18,16.42-44.71,14.26-57.36-7.96-125.77-76.31-137.01-132.61-3.52-17.64-2.65-40.34,14.39-50.69,3.81-2.31,17.77-9.95,21.45-10.45ZM99.65,79.74c-5.6,3.3-12.52,5.81-17.88,9.35-13.45,8.88-11.14,31.25-7.49,44.75,12.98,48.06,67.91,103.23,115.97,116.23,12.35,3.34,32.4,5.77,42.57-3.96,2.28-2.18,10.59-17.47,11.62-20.7.7-2.18.48-3.08-.99-4.73-9.27-7.09-17.78-15.2-26.97-22.36-3-2.34-5.57-5.66-9.35-2.99-7.16,5.07-10.91,16.34-22.13,12.79-10.18-3.23-27.47-17.02-35.49-24.47-10.37-9.62-28.4-30.39-32.94-43.6-4.13-12,7.58-15.38,12.72-22.99.88-1.3,1.48-2.5.7-4.04l-26.22-32.04c-1.11-.99-2.62-1.61-4.12-1.22Z"/>
  </g>
</svg>