<?xml version="1.0" encoding="UTF-8"?>
<svg id="Calque_2" data-name="Calque 2" xmlns="http://www.w3.org/2000/svg" viewBox="0 0 109.7 107.21">
  <g id="Calque_1-2" data-name="Calque 1">
    <g>
      <path d="M51.43.83c1.11-.51,2.07-.24,3.15-.37.26-.03.57-.42.92-.45.69-.07,1.2.6,1.62.51.47-.1.84-1.14,1.16.01,2.2-.26,4.9.63,7.06.61.95,0,.72-.7,1.44.52,1.29-.73,2.15.85,3.16,1.1.74.19,1.54,0,2.35.19,2.65.62,5.4,2.28,7.95,3.29.24.1.22.49.42.53,1.22.27,1.33-.58,1.9,1.17,2.1-.06,1.39.45,2.14,1.22.32.33,1.18.51,1.67.88,1.65,1.25,2.83,2.22,4.18,3.52.89.86,2.04,1.08,3.18,2.38.3.34,1.08,1.74,1.18,1.79.11.06.56-.3.81-.12.3.22.24,1.01.54,1.46.22.33,1.56,1.38,1.99,1.95,2.04,2.68,3.57,5.49,5.1,8.39,1.11,2.1,3.04,5.6,3.61,7.77.12.46-.25.96-.11,1.22.09.17.65.18.81.62.12.34-.12.79-.02,1.12,1.25,4.31,2.09,8.73,2.05,13.05-.03,3.64-.24,9.92-1.24,13.32-.13.43-.57.37-.57.51-.02,1.86-.64,2.44-.86,4.29-.2,1.72-.12.45-.54,1.42-.87,2.03-1.29,4.49-2.3,6.24-.31.54-1.67,2.37-1.7,2.53-.52,2.33-2.2,4.53-3.62,6.49-1.19,1.64-2.65,3.03-3.74,4.45-.48.63.11,1.23-1.38,1,.04,1.48-1.85,3.32-2.98,4.22-1.42,1.14-2.61,1.02-3.53,1.57-.21.13-.21.64-.48.71-.56.14-4.28-.37-4.95-.66-.96-.41-2.22-1.92-2.86-2.75-.09-.12.09-.47.04-.51-.2-.22-.96-.22-1.06-.35-.05-.06.22-1.1.18-1.47s-.46-.75-.46-1.18c0-.36.97-3.24,1.2-3.45.21-.2.78-.12,1.07-.48.32-.39.23-1.08.48-1.5.27-.46,3.54-3.55,3.79-3.66.66-.3,2.14-.7,2.69-1.59.3-.49-.31-.99.59-.53.31-.19.78-1.62.98-1.83.32-.36,1.41-.46,1.75-1.22.45-1,1.24-3.37,1.85-4.28,3.31-4.86,4.47-7.08,4.5-13.06,0-.19.47-.17.57-.35.34-.61.36-5.67.28-6.72-.09-1.2-.93-3.14-.88-3.97.03-.53.57-.39.57-.53-.04-1.01-.96-3.16-1.25-4.11-.31-1.02.31-2.45-.43-4.02-1.47-3.11-3.31-6.75-5.23-9.53-1.14-1.65-2.6-3.17-4.08-4.74-.52-.55-.5-1.65-1.69-1.49l.28-.54c-1.63-.02-.57-1.51-2.24-1.15.16-2.26-3.03-1.7-4.18-3.43l.22-.51c-1.69.59-2.72-1.5-3.68-1.82-1.35-.45-1.41-.66-2.19-1-.59-.26-2.16-.05-2.88-.29l-.02-1.1c-2.57.27-5.72-1.49-8.15-1.57-.58-.02-1.79.52-2.38.42-.21-.04-.15-.54-.37-.58-1.58-.27-5.86-.37-7.52.01-.21.05-.17.51-.38.55-3.79.86-7.32.92-10.9,2.83-.29.16-1.42,1.25-1.76,1.41l-.81-.54c-1.2.26-2.26,2.01-3,2.37-1.31.62-2.28-.12-1.96,2.41l-1.95.04c.1.97-1.15,1.08-2.01,1.78-.34.28-1.06,1.1-1.4,1.49-1.88,2.2-2.35,2.94-3.43,5.52-.42,1-1.83,1.3-2.08,1.89-.27.63-.47,1.87-.86,2.51-.29.47-1.27.65-1.47.94-.3.47-.44,2.64-.67,3.42-1.1,3.83-2.55,7.61-2.75,11.64-.08,1.58.74,4.49-.33,5.33v.56c1.55.69.79,4.18,1.25,5.1.34.69,2.56,1.82.45,2.8.41,1.13,1.34.93,1.41.99.1.09-.3,1.45.07,2.61.34,1.04,1.85,3.06,1.9,3.25.54,1.82.2.66,1.09,1.95.45.66.51,1.79.74,2.09.29.37.97.1,1.53.73.83.93-.72.51-.24,1.23.02.02.38-.06.56.2,1.06,1.52,1.95,1.88,2.83,3.1.58.81,0,.45,1.01,1.32.93.8,1.21,2,1.31,2.08.43.36,1.89.96,2.54,1.48,1.2.97,1.3,1.58,2.68,2.47,8.1,5.31,11.57,7.34,21.39,8.55,1.24.15,2.44,1.28,3.96-.03.26,1.07,2.41.21,3.47.09,2.22-.25,3.32-.65,5.41-1.08,3.25-.66,5.61.4,4.75,4.18-.42,1.84-3.44,2.13-4.79,2.54-8.05,2.43-16.92,3.51-25.17,2.65-3.28-.34-6.44-1.2-9.27-2.64-.58-.3-2.18-.1-3.1-.46-.78-.3-1.75-1.25-2.34-1.54-4-1.92-4.3-1.81-7.91-4.87-.86-.73-2.53-1.06-3.41-1.78-1.55-1.27-3.04-3.44-4.25-4.72-.43-.46-1.14-.28-1.18-.32-.26-.27-.32-1.57-.78-2.15-.41-.51-.75-.25-.91-.37-.11-.08-.82-2.1-1.05-2.48-.45-.76-1.4-1.48-1.56-2.55l-.82.27.25-.72-.55-.28c1.36-1.42-2.69-4.74-2.73-5.04-.05-.33.43-1.02.38-1.44-.04-.36-.7-.62-.88-.99-.13-.26.11-.67-.02-.85-.14-.2-.68-.18-.7-.43-.12-1.23-.04-2.9-.41-4.21-.13-.46-1.17-1.6-1.2-1.7-.33-1.23.41-3.85-.93-5.08v-.28c.67-.06.48-.95.45-1.64-.14-3.33-.93-6.68-.7-9.67l.54-.25-.54-1.25c1.16-.15.58-2.21.83-3.23.06-.23.55-.18.57-.37.06-.47-.68-3.08-.58-3.2,1.95.04,1.13-2.66,1.51-3.77.32-.93,1.45-2.33,1.76-3.57.11-.43-.23-.94-.12-1.08.09-.12.52-.13.65-.32.12-.16.12-1.89.2-1.95.51-.4,1.26-.12,1.77-1.47.24-.63-.12-1.25-.07-1.53.04-.18.52-.03.55-.55.03-.64-.36-1.21-.31-1.85l1.13.71c.24-.21.24-.68.46-.98.72-.99,1.05-2.22,2.2-3.3,1.27-1.2,3.41-4.12,4.51-5.65.8-1.12,3.59-3.01,4.67-3.98.55-.49,1.19-1.87,1.81-2.22.73-.41,2.28-.66,2.92-1.05.59-.35,1.02-1.74,2.06-1.61l-.28-.55c2.02.38,2.75-1.29,3.9-1.95,1.74-1,10.57-4.02,12.7-4.48,1.74-.38,4.04-.12,6.33-.7,1.01-.26,1.82-1.51,2.23.05Z"/>
      <path d="M33.05,81.6l4.73-14.02c-10.63-19.41,3.27-41.94,25.61-40.17,12.26.97,22.7,11.94,23.57,24.14,1.53,21.42-20.51,35.12-39.37,25.53l-14.54,4.53ZM40.38,74.26l8.05-2.42c20.86,13.56,44.85-12.88,28.64-32.15-13.99-16.63-41.16-4.08-38.07,17.18.51,3.49,2.07,6.69,3.92,9.64l-2.54,7.75Z"/>
      <path d="M74.2,60.2c.67,3.12-1.59,6.13-4.66,6.65-8.32,1.4-19.73-9.12-21.85-16.69-.83-2.96-.35-7.13,2.44-8.94.97-.63,3.42-.76,4.24,0,.26.24,2.42,6.26,2.41,6.65-.01,1.48-2.66,2.86-2.44,3.83,2.15,3.84,5.37,7.14,9.57,8.68,1.32-.68,2.59-3.47,3.97-3.34.45.04,6.14,2.86,6.32,3.16Z"/>
    </g>
  </g>
</svg>